<svg width="150" height="42" viewBox="0 0 150 42" fill="none" xmlns="http://www.w3.org/2000/svg">
<path d="M77.7435 26.1219C77.7435 26.5112 77.777 26.8111 77.8456 27.0249C77.9142 27.2387 77.9908 27.3982 78.0785 27.5051C78.1663 27.612 78.2428 27.6902 78.3114 27.7381C78.3801 27.7859 78.4136 27.8402 78.4136 27.8976C78.4136 28.0141 78.3705 28.18 78.2827 28.3922C78.195 28.606 78.0498 28.815 77.8456 29.0176C77.6414 29.2218 77.3797 29.4005 77.059 29.5569C76.7384 29.7116 76.3459 29.7898 75.88 29.7898C75.2004 29.7898 74.6611 29.5664 74.2638 29.1197C73.865 28.673 73.6671 27.896 73.6671 26.7904V18.9281C73.6671 18.4431 73.6576 18.0506 73.6384 17.7491C73.6193 17.4475 73.5985 17.2002 73.5794 17.0072C73.5602 16.8141 73.5395 16.6673 73.5204 16.57C73.5012 16.4727 73.4916 16.385 73.4916 16.3084C73.4916 16.1728 73.5539 16.018 73.6815 15.8425C73.8075 15.6686 73.9878 15.5027 74.2208 15.3479C74.4537 15.1932 74.7297 15.0623 75.0504 14.9554C75.3711 14.8485 75.7157 14.7959 76.0842 14.7959C76.5118 14.7959 76.8947 14.9523 77.2345 15.2618C77.5744 15.5729 77.7435 16.1552 77.7435 17.0088V26.1235V26.1219Z" fill="#396CF6"/>
<path d="M59.019 12.4073C59.019 12.6594 59.0142 12.9609 59.0046 13.3103C58.9951 13.6597 58.9903 14.0234 58.9903 14.4016C58.9903 14.7797 58.9855 15.169 58.9759 15.5662C58.9663 15.9651 58.9615 16.348 58.9615 16.7165V17.736H66.7951V16.7453C66.7951 16.3767 66.7904 15.9587 66.7808 15.4928C66.7712 15.027 66.7664 14.5468 66.7664 14.0522C66.7664 13.5576 66.7616 13.0678 66.7521 12.5812C66.7425 12.0962 66.7377 11.659 66.7377 11.2713V10.689C66.7377 10.1848 66.9611 9.77161 67.4078 9.45093C67.8545 9.13025 68.3874 8.9707 69.0096 8.9707C69.6318 8.9707 70.0961 9.1462 70.4662 9.4956C70.8348 9.845 71.0199 10.4465 71.0199 11.3016C71.0199 12.4854 71.0103 13.7666 70.9911 15.145C70.972 16.5235 70.9624 17.8637 70.9624 19.1639V26.1232C70.9624 26.57 70.9959 26.8954 71.0645 27.098C71.1331 27.3023 71.2097 27.4522 71.2975 27.5496C71.3852 27.6469 71.4666 27.7091 71.5448 27.7394C71.6213 27.7681 71.6708 27.8224 71.6899 27.899C71.6899 28.0154 71.6469 28.1813 71.5591 28.3935C71.4714 28.6073 71.331 28.8163 71.1363 29.0189C70.9417 29.2232 70.6848 29.4019 70.3641 29.5582C70.0434 29.713 69.651 29.7911 69.1851 29.7911C68.4464 29.7911 67.8641 29.5678 67.4381 29.1211C67.0105 28.6743 66.7983 27.8974 66.7983 26.7917V21.3752H58.9647V26.4423C58.9647 27.181 58.9839 27.6756 59.0222 27.9277C59.0605 28.1798 59.0812 28.3744 59.0812 28.51C59.0812 28.6456 58.9982 28.7924 58.8339 28.9472C58.6696 29.1019 58.459 29.2439 58.2085 29.3699C57.9564 29.496 57.6788 29.5981 57.3789 29.6763C57.0773 29.7529 56.7918 29.7927 56.5205 29.7927C55.8217 29.7927 55.3511 29.5885 55.1086 29.1817C54.8661 28.7733 54.7448 28.2787 54.7448 27.6963V27.0119C54.7448 26.6529 54.7496 26.2206 54.7592 25.7164C54.7687 25.2122 54.7735 24.6682 54.7735 24.0859C54.7735 23.5035 54.7783 22.9308 54.7879 22.3676C54.7975 21.8044 54.8023 21.2859 54.8023 20.8104V18.0727C54.8023 17.5781 54.7975 17.034 54.7879 16.4421C54.7783 15.8502 54.7735 15.2344 54.7735 14.593C54.7735 13.9517 54.7687 13.355 54.7592 12.8013C54.7496 12.2477 54.7448 11.7819 54.7448 11.4037V10.7193C54.7448 10.2343 54.9586 9.82107 55.3846 9.48124C55.8122 9.14141 56.3355 8.9723 56.9577 8.9723C57.5209 8.9723 58.0059 9.12227 58.4143 9.42381C58.8212 9.72534 59.0254 10.2726 59.0254 11.0687V12.4089L59.019 12.4073Z" fill="#396CF6"/>
<path d="M75.7069 13.3395C75.0655 13.3395 74.5183 13.1608 74.062 12.8002C73.6057 12.4412 73.3776 11.9419 73.3776 11.3005C73.3776 10.6591 73.6057 10.1502 74.062 9.77208C74.5183 9.39396 75.0671 9.2041 75.7069 9.2041C76.3467 9.2041 76.8716 9.3796 77.3374 9.729C77.8033 10.0784 78.0362 10.6017 78.0362 11.3021C78.0362 11.9435 77.8033 12.4428 77.3374 12.8018C76.8716 13.1608 76.3275 13.3411 75.7069 13.3411V13.3395Z" fill="#396CF6"/>
<path d="M90.3111 11.1549C90.6988 10.5917 91.203 10.0875 91.8252 9.64079C92.4458 9.19406 93.1845 8.9707 94.038 8.9707C94.815 8.9707 95.6494 9.13503 96.5429 9.46529C97.4363 9.79554 98.2707 10.3539 99.0477 11.1389C99.8247 11.9255 100.469 12.9593 100.985 14.2404C101.498 15.5216 101.757 17.1234 101.757 19.0459C101.757 20.2105 101.592 21.4295 101.262 22.701C100.932 23.9726 100.378 25.1325 99.6029 26.1807C98.826 27.2289 97.7873 28.0936 96.487 28.7717C95.1868 29.4513 93.5754 29.7911 91.6529 29.7911C90.5265 29.7911 89.5995 29.7034 88.872 29.5295C88.1445 29.3556 87.5718 29.1131 87.1538 28.802C86.7357 28.4925 86.4454 28.1175 86.281 27.6804C86.1167 27.2432 86.0338 26.763 86.0338 26.2397C86.0338 26.0849 86.0385 25.7643 86.0481 25.2792C86.0577 24.7942 86.0625 24.231 86.0625 23.5897C86.0625 22.9483 86.0673 22.2894 86.0768 21.6097C86.0864 20.9301 86.0912 20.3095 86.0912 19.7463V18.087C86.0912 17.602 86.0864 17.0628 86.0768 16.4708C86.0673 15.8789 86.0625 15.2631 86.0625 14.6217C86.0625 13.9804 86.0577 13.3885 86.0481 12.846C86.0385 12.302 86.0338 11.8361 86.0338 11.4484V10.7209C86.0338 10.547 86.096 10.3571 86.2236 10.1529C86.3496 9.94871 86.5251 9.76044 86.7485 9.58495C86.9719 9.40945 87.2431 9.26426 87.5638 9.1478C87.8845 9.03133 88.2482 8.9723 88.6551 8.9723C89.1592 8.9723 89.5629 9.15737 89.8628 9.52591C90.1643 9.89446 90.3143 10.4385 90.3143 11.1565L90.3111 11.1549ZM93.2802 12.5812C92.8526 12.5812 92.4554 12.645 92.0868 12.771C91.7183 12.8971 91.3976 13.0726 91.1264 13.2959C90.8552 13.5193 90.6414 13.7809 90.4866 14.0825C90.3303 14.384 90.2537 14.7079 90.2537 15.0573V25.4532C90.2537 25.5505 90.2776 25.643 90.3271 25.7292C90.3749 25.8169 90.4723 25.9047 90.619 25.9908C90.7658 26.077 90.9828 26.1472 91.2748 26.195C91.5651 26.2429 91.9544 26.2684 92.4394 26.2684C94.1864 26.2684 95.4819 25.6271 96.3275 24.3459C97.1715 23.0648 97.5943 21.2986 97.5943 19.0459C97.5943 16.7931 97.1906 15.2264 96.3849 14.1686C95.5792 13.1109 94.5454 12.5812 93.2834 12.5812H93.2802Z" fill="#396CF6"/>
<path d="M116.749 27.9862C116.749 28.1426 116.704 28.3213 116.616 28.5255C116.53 28.7297 116.388 28.9276 116.195 29.1222C116 29.3152 115.753 29.4764 115.452 29.6008C115.152 29.7285 114.786 29.7907 114.359 29.7907C113.971 29.7907 113.636 29.7285 113.355 29.6008C113.074 29.4748 112.846 29.3105 112.672 29.1062C112.497 28.9036 112.366 28.6707 112.28 28.409C112.192 28.1474 112.138 27.8794 112.12 27.6081C111.556 28.2686 110.823 28.7983 109.922 29.1956C109.019 29.5929 108.023 29.7923 106.937 29.7923C106.062 29.7923 105.301 29.6646 104.651 29.4142C104 29.1621 103.457 28.8318 103.022 28.4234C102.586 28.015 102.259 27.5635 102.045 27.0689C101.831 26.5743 101.724 26.0749 101.724 25.5692C101.724 24.8113 101.889 24.1428 102.219 23.5589C102.264 23.4807 102.31 23.4026 102.359 23.3292C102.667 22.8458 103.053 22.4277 103.516 22.0736C104.049 21.6667 104.655 21.3604 105.337 21.1578C105.431 21.1291 105.526 21.1035 105.621 21.078C106.204 20.9264 106.788 20.8515 107.374 20.8515C108.073 20.8515 108.671 20.9791 109.166 21.2296C109.32 21.3078 109.45 21.4003 109.556 21.5056C109.791 21.7385 109.907 22.0337 109.907 22.3926C109.907 22.8202 109.81 23.117 109.617 23.2813C109.422 23.4456 109.19 23.5302 108.918 23.5302H108.511C108.277 23.5302 107.991 23.5398 107.652 23.5589C107.312 23.5797 106.986 23.6323 106.675 23.7185C106.366 23.8062 106.099 23.9434 105.876 24.1269C105.652 24.3104 105.541 24.5784 105.541 24.9262C105.541 25.006 105.549 25.0826 105.565 25.1591C105.619 25.4288 105.777 25.6681 106.035 25.8739C106.366 26.1355 106.986 26.2664 107.899 26.2664C108.403 26.2664 108.898 26.2169 109.384 26.1196C109.868 26.0223 110.295 25.8675 110.665 25.6537C111.034 25.4399 111.331 25.1687 111.554 24.8385C111.777 24.5082 111.889 24.1109 111.889 23.6435V22.683C111.889 22.198 111.865 21.697 111.817 21.1817C111.779 20.7781 111.686 20.3984 111.54 20.049C111.5 19.9532 111.457 19.8607 111.409 19.7698C111.185 19.3438 110.841 18.9944 110.377 18.7216C110.174 18.6035 109.935 18.511 109.662 18.4455C109.308 18.3594 108.896 18.3147 108.425 18.3147C107.707 18.3147 107.101 18.3929 106.605 18.5476C106.11 18.704 105.708 18.8731 105.397 19.0566C105.086 19.2417 104.844 19.4124 104.67 19.5671C104.494 19.7235 104.368 19.8001 104.292 19.8001C103.904 19.8001 103.564 19.6788 103.272 19.4347C102.982 19.1922 102.835 18.8492 102.835 18.4025C102.835 18.2493 102.849 18.1009 102.881 17.9541C102.955 17.5984 103.12 17.2617 103.374 16.9458C103.735 16.4991 104.209 16.1162 104.8 15.7955C105.392 15.4748 106.062 15.2275 106.811 15.0536C107.557 14.8781 108.32 14.792 109.095 14.792C109.871 14.792 110.504 14.8542 111.098 14.9787C111.685 15.1031 112.203 15.2882 112.648 15.5339C113.54 16.0285 114.226 16.6602 114.7 17.4277C115.176 18.1951 115.492 19.039 115.648 19.9612C115.677 20.1303 115.701 20.2978 115.723 20.4638C115.825 21.1897 115.878 21.8917 115.879 22.5745V26.0909C115.879 26.5169 115.924 26.8375 116.01 27.0513C116.098 27.2651 116.2 27.4247 116.316 27.5315C116.433 27.6384 116.535 27.715 116.621 27.7645C116.709 27.8139 116.753 27.8857 116.753 27.9831L116.749 27.9862Z" fill="#396CF6"/>
<path d="M129.88 22.4237C129.88 22.8513 129.83 23.1719 129.734 23.3841C129.637 23.5979 129.442 23.7048 129.152 23.7048C128.938 23.7048 128.753 23.6665 128.598 23.5883C128.501 24.2489 128.311 24.9429 128.03 25.6704C127.748 26.3979 127.365 27.068 126.88 27.679C126.395 28.2901 125.797 28.7958 125.088 29.1931C124.38 29.5904 123.55 29.7898 122.598 29.7898C121.764 29.7898 121.03 29.6446 120.4 29.3527C119.768 29.0623 119.244 28.6634 118.826 28.1593C118.408 27.6551 118.099 27.0584 117.895 26.3692C117.69 25.68 117.588 24.9285 117.588 24.1116V18.9281C117.588 18.4431 117.574 18.0506 117.545 17.7491C117.517 17.4475 117.481 17.2002 117.443 17.0072C117.405 16.8141 117.37 16.6673 117.341 16.57C117.312 16.4727 117.298 16.385 117.298 16.3084C117.298 16.1728 117.36 16.018 117.488 15.8425C117.614 15.6686 117.794 15.5027 118.027 15.3479C118.26 15.1932 118.531 15.0623 118.842 14.9554C119.153 14.8485 119.493 14.7959 119.862 14.7959C120.328 14.7959 120.744 14.9666 121.114 15.3048C121.483 15.6447 121.668 16.2908 121.668 17.2417V23.3857C121.668 24.3366 121.803 25.0561 122.076 25.5412C122.348 26.0262 122.823 26.2687 123.503 26.2687C124.028 26.2687 124.473 26.0996 124.843 25.7597C125.211 25.4199 125.502 24.9987 125.715 24.493C125.929 23.9888 126.084 23.4304 126.181 22.8193C126.279 22.2083 126.327 21.6403 126.327 21.1154C126.327 21.0181 126.293 20.8873 126.224 20.7229C126.156 20.5586 126.103 20.407 126.065 20.2714C125.87 19.7082 125.739 19.1498 125.672 18.5978C125.604 18.0442 125.57 17.564 125.57 17.1571C125.57 16.3802 125.779 15.793 126.196 15.3958C126.614 14.9985 127.113 14.7991 127.695 14.7991C128.316 14.7991 128.836 14.9842 129.253 15.3527C129.671 15.7213 129.878 16.3132 129.878 17.1284V22.4285L129.88 22.4237Z" fill="#396CF6"/>
<path d="M144.048 28.4501C143.863 28.2267 143.692 28.115 143.539 28.115C143.461 28.115 143.314 28.2171 143.102 28.4197C142.887 28.624 142.582 28.8473 142.185 29.0898C141.787 29.3339 141.286 29.5573 140.685 29.7615C140.083 29.9641 139.354 30.0662 138.501 30.0662C137.936 30.0662 137.408 29.9849 136.913 29.8189C136.577 29.7073 136.269 29.5573 135.986 29.3658C135.654 29.2861 135.332 29.184 135.02 29.0611C134.078 28.6926 133.263 28.1772 132.574 27.5183C131.884 26.8578 131.347 26.0665 130.956 25.1459C130.817 24.8173 130.704 24.4806 130.616 24.1328C130.455 24.7598 130.374 25.4187 130.374 26.1064C130.374 27.1945 130.567 28.198 130.954 29.1201C131.344 30.0423 131.881 30.8336 132.572 31.4926C133.26 32.1531 134.077 32.6684 135.018 33.0353C135.959 33.4039 136.983 33.589 138.092 33.589C139.081 33.589 139.959 33.4581 140.726 33.1965C141.494 32.9348 142.143 32.5998 142.678 32.193C143.212 31.7861 143.619 31.3378 143.9 30.8544C144.18 30.3694 144.322 29.9019 144.322 29.4552C144.322 29.0085 144.23 28.6734 144.046 28.4517L144.048 28.4501Z" fill="#396CF6"/>
<path d="M144.324 24.5688C144.324 25.0155 144.182 25.4798 143.901 25.9664C143.62 26.4514 143.214 26.8981 142.679 27.3049C142.145 27.7134 141.494 28.0484 140.728 28.3101C139.961 28.5717 139.083 28.7025 138.094 28.7025C137.354 28.7025 136.652 28.6196 135.986 28.4536C135.654 28.3739 135.332 28.2718 135.02 28.1489C134.078 27.7804 133.263 27.265 132.574 26.6061C131.884 25.9456 131.347 25.1543 130.956 24.2337C130.817 23.9051 130.704 23.5684 130.616 23.2206C130.455 22.5888 130.374 21.9219 130.374 21.2199C130.374 20.151 130.567 19.157 130.954 18.2349C131.344 17.3143 131.881 16.5166 132.572 15.8481C133.26 15.178 134.072 14.6531 135.004 14.275C135.935 13.8969 136.955 13.707 138.062 13.707C138.857 13.707 139.614 13.8091 140.332 14.0118C141.05 14.216 141.687 14.5175 142.24 14.9148C142.794 15.312 143.234 15.8018 143.565 16.3858C143.895 16.9665 144.059 17.6478 144.059 18.4231C144.059 19.0438 143.938 19.6357 143.695 20.1989C143.664 20.2723 143.63 20.3456 143.595 20.4174C143.359 20.8913 143.043 21.3125 142.647 21.6842C142.189 22.1118 141.637 22.4468 140.986 22.6877C140.766 22.7691 140.538 22.8393 140.3 22.892C139.831 22.9989 139.329 23.0515 138.788 23.0515C137.933 23.0515 137.317 22.9111 136.939 22.6287C136.562 22.3479 136.371 22.0033 136.371 21.5965C136.371 21.5837 136.371 21.5709 136.371 21.5598C136.38 21.1912 136.545 20.9312 136.864 20.7796C137.194 20.6232 137.582 20.5451 138.028 20.5451H138.32C139.64 20.5451 140.3 20.0409 140.3 19.031C140.3 18.5795 140.147 18.1902 139.844 17.8631C139.809 17.8233 139.771 17.7866 139.731 17.7499C139.354 17.3989 138.756 17.225 137.941 17.225C137.435 17.225 136.969 17.3175 136.542 17.501C136.254 17.6254 135.988 17.7866 135.747 17.986C135.629 18.0817 135.516 18.187 135.407 18.3019C135.075 18.6513 134.82 19.0741 134.635 19.5687C134.45 20.0632 134.359 20.6217 134.359 21.2423C134.359 21.8629 134.471 22.45 134.694 22.9462C134.728 23.0196 134.761 23.0914 134.799 23.16C135.008 23.562 135.273 23.9035 135.595 24.1843C135.921 24.4667 136.286 24.6884 136.696 24.8496C136.765 24.8783 136.835 24.9022 136.905 24.9261C137.4 25.0905 137.928 25.175 138.493 25.175C139.346 25.175 140.075 25.0729 140.677 24.8687C141.277 24.6661 141.778 24.4427 142.177 24.1986C142.574 23.9561 142.879 23.7328 143.094 23.5285C143.306 23.3243 143.453 23.2222 143.531 23.2222C143.656 23.2222 143.79 23.294 143.932 23.4392C143.968 23.4743 144.003 23.5126 144.04 23.5573C144.224 23.7806 144.316 24.1173 144.316 24.5624L144.324 24.5688Z" fill="#396CF6"/>
<path d="M145.108 27.3742C145.108 27.0248 145.171 26.6993 145.298 26.3994C145.424 26.0994 145.593 25.8362 145.807 25.6128C146.021 25.3894 146.278 25.2155 146.579 25.0895C146.881 24.9635 147.195 24.8996 147.525 24.8996C148.224 24.8996 148.811 25.1422 149.287 25.6272C149.762 26.1122 150 26.6945 150 27.3742C150 28.0538 149.757 28.6266 149.272 29.0925C148.787 29.5583 148.205 29.7913 147.525 29.7913C146.846 29.7913 146.273 29.5583 145.807 29.0925C145.341 28.6266 145.108 28.0538 145.108 27.3742ZM145.866 21.7838C145.828 21.3578 145.788 20.8425 145.75 20.241C145.711 19.6395 145.667 19.0029 145.619 18.3344C145.569 17.6643 145.526 16.9847 145.488 16.2955C145.448 15.6062 145.41 14.9553 145.372 14.3442C145.333 13.7332 145.303 13.1844 145.284 12.6994C145.265 12.2143 145.255 11.8458 145.255 11.5921C145.255 10.7768 145.415 10.102 145.735 9.56751C146.056 9.03304 146.634 8.7666 147.468 8.7666C148.302 8.7666 148.963 8.9756 149.332 9.39201C149.7 9.81002 149.885 10.3876 149.885 11.1247C149.885 11.5714 149.861 12.1824 149.812 12.9594C149.762 13.7364 149.71 14.566 149.652 15.4483C149.593 16.3322 149.536 17.2304 149.477 18.1414C149.419 19.054 149.37 19.8692 149.332 20.5872C149.312 21.0531 149.277 21.4711 149.229 21.8396C149.18 22.2081 149.099 22.5288 148.982 22.8001C148.866 23.0729 148.69 23.2803 148.457 23.4255C148.224 23.5706 147.913 23.644 147.525 23.644C146.962 23.644 146.56 23.4893 146.318 23.1782C146.075 22.8687 145.925 22.4012 145.866 21.7806V21.7838Z" fill="#396CF6"/>
<path d="M41.7091 13.648C41.2432 12.7689 40.3977 12.6876 39.4962 12.6828C33.8356 12.6636 28.55 14.2511 23.4222 16.456C22.3309 16.9251 21.2365 17.1676 20.0702 17.2872C14.5436 17.86 9.21008 19.1044 4.30571 21.839C3.51278 22.2777 2.86503 22.8154 2.93842 23.8173C3.0134 24.8049 3.42343 25.6042 4.42856 25.9472C4.92314 26.1148 5.20394 26.4642 5.43847 26.9013C6.25374 28.4058 7.06262 29.9103 7.90342 31.4004C8.93885 33.2288 10.5327 33.8925 12.5812 33.5974C14.6218 33.299 16.6225 32.8379 18.521 32.0402C19.2246 31.7419 19.3953 31.8839 19.4033 32.6178C19.4145 33.9547 19.641 35.2774 20.0176 36.5617C21.1982 40.5806 24.1481 42.3563 28.2676 41.5777C29.6572 41.3177 30.983 40.8694 32.2928 40.3748C33.2916 39.9951 33.6777 39.3026 33.3873 38.4985C33.0969 37.6897 32.3487 37.3993 31.3499 37.7423C30.2172 38.1364 29.086 38.532 27.9118 38.7809C25.0895 39.3808 23.4573 38.3869 22.6644 35.5996C22.2512 34.1366 22.248 32.6241 22.0645 30.6123C22.1347 28.1537 22.6229 25.2054 22.4969 22.2251C22.4969 22.1581 22.5112 22.0879 22.5336 22.0241C22.6341 21.7369 22.6309 21.3428 22.9468 21.2343C23.3377 21.1035 23.5658 21.4689 23.7589 21.7289C24.046 22.1118 24.2869 22.5298 24.5295 22.9398C25.1022 23.9115 25.6463 24.907 26.243 25.8627C27.4092 27.7214 29.0653 28.7121 31.3085 28.5701C33.8963 28.4026 36.3692 27.7501 38.7193 26.6668C40.0818 26.0334 40.8763 24.9501 41.0582 23.4041C41.2704 21.5901 41.0661 19.7809 41.0805 17.9669C41.0885 17.3941 41.055 16.8277 41.4937 16.3284C42.2165 15.5083 42.1909 14.559 41.7059 13.6464L41.7091 13.648ZM19.3235 28.3101C19.3267 28.8047 18.8848 29.0743 18.5003 29.2929C16.6352 30.3618 14.5979 30.9537 12.4775 31.2106C11.4277 31.3366 10.5822 30.9569 10.019 29.9263C9.09521 28.2351 8.38683 26.4658 7.7327 24.6645C7.47265 23.9498 7.70718 23.5318 8.33897 23.152C10.3843 21.9156 14.4798 20.7796 17.2766 20.7318C19.0156 20.7014 18.9965 20.7062 19.3363 22.3783C19.7431 24.3598 19.2916 26.3333 19.322 28.3117L19.3235 28.3101ZM36.0565 25.2149C34.4882 25.6984 32.8911 26.0525 31.2335 26.1164C30.206 26.1578 29.4578 25.759 28.8834 24.9325C27.7395 23.2829 27.0774 21.4162 26.444 19.5368C26.2876 19.0677 26.4631 18.7247 26.8652 18.4982C30.0225 16.7033 33.4049 15.7604 37.0504 15.8162C37.6503 15.8274 37.8513 16.1848 37.9519 16.7256C38.2678 18.4088 38.4847 20.1 38.5246 21.2056C38.5501 23.921 38.0923 24.5879 36.0549 25.2165L36.0565 25.2149Z" fill="#396CF6"/>
<path d="M28.3807 4.45729C29.4353 4.48123 30.375 4.86892 31.2987 5.33478C32.5911 5.98572 33.7733 6.33512 35.1884 5.29171C36.7168 4.16533 38.625 4.74128 39.7641 6.32236C40.7996 7.76144 41.2303 7.92098 42.9263 7.49022C44.0527 7.20463 45.5157 8.40919 45.4487 9.58343C45.4263 9.99026 45.2125 10.3014 44.8041 10.4178C44.3797 10.5391 43.9841 10.37 43.8788 9.98229C43.6618 9.17978 43.2246 9.29146 42.5753 9.41431C40.8777 9.73659 39.5902 8.97397 38.5995 7.64178C37.5688 6.25695 36.8557 6.11336 35.4437 7.13444C34.1626 8.06138 32.8591 7.8125 31.5413 7.30196C30.8105 7.01956 30.1197 6.62709 29.3826 6.36384C28.4014 6.01284 27.4442 5.98732 26.6289 6.81854C26.238 7.2174 25.7722 7.26367 25.3733 6.81854C24.9728 6.37182 25.126 5.92669 25.4946 5.54219C26.2795 4.72373 27.2703 4.42858 28.3775 4.45251L28.3807 4.45729Z" fill="#396CF6"/>
<path d="M29.1359 2.92076C28.5647 2.88407 28.0861 2.86652 27.6074 2.82184C25.7567 2.65113 24.892 3.22868 24.3559 5.01078C24.3272 5.1081 24.316 5.21181 24.2873 5.31072C24.1038 5.95049 24.0624 6.85032 23.0652 6.53921C22.1271 6.24565 22.4909 5.44315 22.6616 4.79699C23.4322 1.87894 25.1297 0.768519 28.1148 1.14664C29.2938 1.29661 30.4696 1.44658 31.4971 0.489317C32.014 0.00909118 32.7862 0.136726 33.4691 0.310629C34.5077 0.57228 35.4362 1.08601 36.3871 1.55666C37.0939 1.90606 37.7927 2.14857 38.3319 1.23279C38.5633 0.840313 38.9781 0.735015 39.4041 1.00783C39.8652 1.30459 39.8763 1.73057 39.6976 2.18208C39.3275 3.12179 38.225 3.66424 37.0636 3.5382C36.0042 3.42332 35.1682 2.77877 34.2301 2.3831C33.2904 1.98584 32.4607 1.6476 31.5194 2.50754C30.8637 3.10583 29.8937 2.90321 29.1343 2.92076H29.1359Z" fill="#396CF6"/>
<path d="M10.7268 13.342C10.0456 13.3117 9.39784 13.1107 8.77084 12.8251C7.00788 12.021 6.21654 12.2045 5.22099 13.8845C4.35946 15.3379 3.11023 16.0623 1.50682 16.3191C0.867047 16.4212 0.179415 16.4946 0.0246573 15.6762C-0.138077 14.8194 0.533601 14.695 1.18933 14.6248C2.30773 14.5051 3.20117 14.0424 3.75798 13.0038C4.2031 12.1742 4.86042 11.528 5.68207 11.0574C6.70315 10.4734 7.73221 10.3554 8.80274 10.9425C9.19044 11.1547 9.60046 11.3398 10.0185 11.4786C10.6822 11.6987 11.2932 11.686 11.7208 10.9872C12.0335 10.475 12.4914 10.274 13.0115 10.6808C13.5332 11.0877 13.3769 11.5823 13.0594 12.0433C12.501 12.8554 11.7415 13.3149 10.7236 13.3404L10.7268 13.342Z" fill="#396CF6"/>
<path d="M7.77414 7.67917C8.50007 7.94242 9.05688 7.53399 9.63602 6.88146C10.9554 5.39291 11.7962 5.43759 13.1603 6.93411C13.4252 7.22607 13.6485 7.43826 14.1176 7.31063C14.6074 7.17661 14.9935 7.43029 15.086 7.96635C15.177 8.49444 14.8882 8.81512 14.4207 8.98265C13.3949 9.35279 12.562 8.95712 11.9877 8.15461C11.45 7.40157 11.056 7.6361 10.697 8.20407C10.0237 9.26823 9.08719 9.58572 7.88104 9.42618C6.62703 9.26025 5.50065 9.56179 4.61837 10.5414C4.24344 10.9562 3.77917 11.0711 3.35957 10.6594C2.90328 10.2127 3.04846 9.73729 3.45689 9.30811C4.58965 8.11313 5.98726 7.59621 7.77734 7.67917H7.77414Z" fill="#396CF6"/>
<path d="M11.1143 1.75767C11.4462 1.7816 11.6982 1.93795 11.8594 2.22673C12.2503 2.92553 12.8374 2.95265 13.5346 2.78194C15.5321 2.29692 16.199 2.75003 16.5117 4.79219C16.5675 5.16073 16.7286 5.40962 17.0206 5.6282C17.4434 5.94409 17.4976 6.38284 17.2041 6.79925C16.8595 7.28904 16.3968 7.23001 15.9421 6.93805C15.2608 6.50249 14.8747 5.86911 14.8652 5.06979C14.8556 4.32632 14.5812 4.24974 13.9079 4.42045C12.2917 4.82888 11.0728 4.34866 10.4458 3.17601C10.0613 2.45647 10.398 1.74171 11.1127 1.75607L11.1143 1.75767Z" fill="#396CF6"/>
<path d="M18.5809 4.95687C18.6144 4.76382 18.6766 4.39368 18.742 4.02354C18.8426 3.45716 18.9096 2.95939 18.1102 2.79665C17.6827 2.7089 17.4593 2.27813 17.6093 1.81705C17.7513 1.37831 18.0943 1.20281 18.5681 1.21877C19.6977 1.25865 20.6087 2.31004 20.5305 3.53374C20.5066 3.90707 20.4603 4.28679 20.3662 4.64736C20.2274 5.18023 20.2673 5.54718 20.8831 5.75778C21.3027 5.90137 21.5197 6.29704 21.3378 6.75812C21.1527 7.23037 20.781 7.40587 20.2657 7.31971C19.1218 7.12826 18.5267 6.37521 18.5793 4.95687H18.5809Z" fill="#396CF6"/>
<path d="M16.7356 15.6131C14.8689 15.4935 13.1458 15.8907 11.6413 17.0666C11.3972 17.2564 11.075 17.6154 10.7495 17.317C10.4288 17.0219 10.7607 16.6821 10.917 16.4045C12.305 13.9283 16.3112 13.1386 18.4555 14.9095C18.6134 15.0404 18.7921 15.1808 18.698 15.4169C18.6022 15.6578 18.3693 15.6131 18.1683 15.6131C17.6896 15.6131 17.2126 15.6131 16.734 15.6131H16.7356Z" fill="#396CF6"/>
<path d="M29.7884 12.0748C27.8468 11.885 26.1636 12.8646 24.4884 13.8729C24.2475 14.0181 24.005 14.3898 23.705 14.0611C23.4402 13.7708 23.7289 13.4979 23.8949 13.2475C25.61 10.666 28.1371 9.83483 30.6914 11.0218C31.0839 11.2037 31.7013 11.3872 31.5928 11.8546C31.4652 12.4003 30.8366 12.0557 30.4298 12.1083C30.2638 12.1291 30.0899 12.0924 29.7868 12.0748H29.7884Z" fill="#396CF6"/>
</svg>
