<svg width="20" height="20" viewBox="0 0 20 20" fill="none" xmlns="http://www.w3.org/2000/svg">
<path d="M13.6 3.65605C13.6 2.81725 13.6 2.39785 13.7368 2.06755C13.8273 1.84902 13.9599 1.65045 14.1272 1.48321C14.2944 1.31596 14.493 1.18332 14.7115 1.09285C15.0418 0.956055 15.4612 0.956055 16.3 0.956055C17.1388 0.956055 17.5582 0.956055 17.8885 1.09285C18.107 1.18332 18.3056 1.31596 18.4728 1.48321C18.6401 1.65045 18.7727 1.84902 18.8632 2.06755C19 2.39785 19 2.81725 19 3.65605V7.25605C19 8.09485 19 8.51425 18.8632 8.84455C18.7727 9.06309 18.6401 9.26166 18.4728 9.4289C18.3056 9.59615 18.107 9.72879 17.8885 9.81925C17.5582 9.95605 17.1388 9.95605 16.3 9.95605C15.4612 9.95605 15.0418 9.95605 14.7115 9.81925C14.493 9.72879 14.2944 9.59615 14.1272 9.4289C13.9599 9.26166 13.8273 9.06309 13.7368 8.84455C13.6 8.51425 13.6 8.09485 13.6 7.25605V3.65605ZM13.6 16.2561C13.6 15.4173 13.6 14.9979 13.7368 14.6676C13.8273 14.449 13.9599 14.2505 14.1272 14.0832C14.2944 13.916 14.493 13.7833 14.7115 13.6929C15.0418 13.5561 15.4612 13.5561 16.3 13.5561C17.1388 13.5561 17.5582 13.5561 17.8885 13.6929C18.107 13.7833 18.3056 13.916 18.4728 14.0832C18.6401 14.2505 18.7727 14.449 18.8632 14.6676C19 14.9979 19 15.4173 19 16.2561C19 17.0949 19 17.5143 18.8632 17.8446C18.7727 18.0631 18.6401 18.2617 18.4728 18.4289C18.3056 18.5961 18.107 18.7288 17.8885 18.8193C17.5582 18.9561 17.1388 18.9561 16.3 18.9561C15.4612 18.9561 15.0418 18.9561 14.7115 18.8193C14.493 18.7288 14.2944 18.5961 14.1272 18.4289C13.9599 18.2617 13.8273 18.0631 13.7368 17.8446C13.6 17.5143 13.6 17.0949 13.6 16.2561ZM1 13.5561C1 11.8587 1 11.0109 1.5274 10.4835C2.0548 9.95605 2.9026 9.95605 4.6 9.95605H6.4C8.0974 9.95605 8.9452 9.95605 9.4726 10.4835C10 11.0109 10 11.8587 10 13.5561V15.3561C10 17.0535 10 17.9013 9.4726 18.4287C8.9452 18.9561 8.0974 18.9561 6.4 18.9561H4.6C2.9026 18.9561 2.0548 18.9561 1.5274 18.4287C1 17.9013 1 17.0535 1 15.3561V13.5561ZM1 3.65605C1 2.81725 1 2.39785 1.1368 2.06755C1.22726 1.84902 1.35991 1.65045 1.52715 1.48321C1.6944 1.31596 1.89296 1.18332 2.1115 1.09285C2.4418 0.956055 2.8612 0.956055 3.7 0.956055H7.3C8.1388 0.956055 8.5582 0.956055 8.8885 1.09285C9.10704 1.18332 9.3056 1.31596 9.47285 1.48321C9.64009 1.65045 9.77274 1.84902 9.8632 2.06755C10 2.39785 10 2.81725 10 3.65605C10 4.49485 10 4.91425 9.8632 5.24455C9.77274 5.46309 9.64009 5.66166 9.47285 5.8289C9.3056 5.99615 9.10704 6.12879 8.8885 6.21925C8.5582 6.35605 8.1388 6.35605 7.3 6.35605H3.7C2.8612 6.35605 2.4418 6.35605 2.1115 6.21925C1.89296 6.12879 1.6944 5.99615 1.52715 5.8289C1.35991 5.66166 1.22726 5.46309 1.1368 5.24455C1 4.91425 1 4.49485 1 3.65605Z" stroke="white" stroke-linecap="round" stroke-linejoin="round"/>
</svg>
