<svg width="24" height="24" viewBox="0 0 24 24" fill="none" xmlns="http://www.w3.org/2000/svg">
<path fill-rule="evenodd" clip-rule="evenodd" d="M12.5313 4.34117C9.46158 4.34117 6.99014 6.79698 6.99014 9.80759C6.99014 10.3233 7.0627 10.8223 7.19665 11.2934C7.75144 11.4541 8.27163 11.6952 8.74047 12.0078C8.8369 12.0662 8.92055 12.1435 8.98638 12.235C9.05221 12.3266 9.09888 12.4304 9.12358 12.5405C9.14828 12.6505 9.1505 12.7643 9.13011 12.8752C9.10972 12.9861 9.06714 13.0918 9.00493 13.1858C8.94272 13.2798 8.86215 13.3603 8.76806 13.4225C8.67398 13.4846 8.56831 13.5271 8.4574 13.5474C8.34649 13.5677 8.23262 13.5654 8.12263 13.5406C8.01264 13.5158 7.90878 13.469 7.8173 13.4031C7.16642 12.9718 6.40237 12.7431 5.62158 12.7456C3.43256 12.7456 1.67442 14.4982 1.67442 16.637C1.67442 18.7758 3.43256 20.5272 5.62158 20.5272H16.7844C19.8541 20.5272 22.3256 18.0714 22.3256 15.0608C22.3256 12.6753 20.774 10.6381 18.5994 9.89466C18.0153 9.69447 17.4019 9.59262 16.7844 9.59326C16.1336 9.59326 15.5118 9.70489 14.9336 9.90582C14.7253 9.97383 14.4986 9.95746 14.3022 9.86022C14.1059 9.76298 13.9554 9.59263 13.8833 9.38573C13.8111 9.17883 13.8229 8.95188 13.9162 8.75359C14.0094 8.5553 14.1767 8.40149 14.3821 8.32517C15.4646 7.94651 16.6215 7.82983 17.7578 7.9847C17.3679 6.9131 16.6566 5.98803 15.7211 5.33589C14.7857 4.68374 13.6717 4.33635 12.5313 4.34117ZM19.6253 8.49484C19.0013 5.17168 16.0566 2.66675 12.5313 2.66675C8.55516 2.66675 5.31572 5.85484 5.31572 9.80759C5.31572 10.2407 5.35367 10.663 5.42958 11.0746C2.42233 11.175 0 13.6174 0 16.637C0 19.719 2.52614 22.2016 5.62158 22.2016H16.7844C20.7594 22.2016 24 19.0135 24 15.0608C24 12.1094 22.1927 9.58545 19.6253 8.49484Z" fill="#396CF6"/>
</svg>
