<svg width="15" height="18" viewBox="0 0 15 18" fill="none" xmlns="http://www.w3.org/2000/svg">
<path fill-rule="evenodd" clip-rule="evenodd" d="M7.32563 0C6.27093 0 5.25943 0.418977 4.51365 1.16476C3.76786 1.91055 3.34888 2.92205 3.34888 3.97674C3.34888 5.03144 3.76786 6.04294 4.51365 6.78873C5.25943 7.53451 6.27093 7.95349 7.32563 7.95349C8.38033 7.95349 9.39183 7.53451 10.1376 6.78873C10.8834 6.04294 11.3024 5.03144 11.3024 3.97674C11.3024 2.92205 10.8834 1.91055 10.1376 1.16476C9.39183 0.418977 8.38033 0 7.32563 0ZM4.6047 3.97674C4.6047 3.25511 4.89137 2.56303 5.40164 2.05276C5.91191 1.54248 6.60399 1.25581 7.32563 1.25581C8.04726 1.25581 8.73934 1.54248 9.24962 2.05276C9.75989 2.56303 10.0466 3.25511 10.0466 3.97674C10.0466 4.69838 9.75989 5.39046 9.24962 5.90073C8.73934 6.41101 8.04726 6.69767 7.32563 6.69767C6.60399 6.69767 5.91191 6.41101 5.40164 5.90073C4.89137 5.39046 4.6047 4.69838 4.6047 3.97674ZM7.32563 9.2093C5.38916 9.2093 3.60423 9.64967 2.28228 10.3931C0.979581 11.1265 4.68016e-05 12.2367 4.68016e-05 13.6047V13.69C-0.000790408 14.6629 -0.00162769 15.8835 1.06916 16.7559C1.59577 17.1846 2.33335 17.4901 3.32963 17.6911C4.32758 17.8937 5.62944 18 7.32563 18C9.02181 18 10.3228 17.8937 11.3225 17.6911C12.3187 17.4901 13.0555 17.1846 13.5829 16.7559C14.6537 15.8835 14.652 14.6629 14.6512 13.69V13.6047C14.6512 12.2367 13.6717 11.1265 12.3698 10.3931C11.047 9.64967 9.26293 9.2093 7.32563 9.2093ZM1.25586 13.6047C1.25586 12.8922 1.7766 12.1186 2.89763 11.4882C3.9994 10.8687 5.5633 10.4651 7.32647 10.4651C9.08795 10.4651 10.6519 10.8687 11.7536 11.4882C12.8755 12.1186 13.3954 12.8922 13.3954 13.6047C13.3954 14.6997 13.3619 15.3159 12.7893 15.7814C12.4795 16.0342 11.9604 16.2812 11.073 16.4604C10.188 16.6395 8.97828 16.7442 7.32563 16.7442C5.67298 16.7442 4.46237 16.6395 3.57828 16.4604C2.69084 16.2812 2.17177 16.0342 1.862 15.7822C1.28935 15.3159 1.25586 14.6997 1.25586 13.6047Z" fill="#396CF6"/>
</svg>
