<svg width="48" height="49" viewBox="0 0 48 49" fill="none" xmlns="http://www.w3.org/2000/svg">
<circle cx="24" cy="24.9116" r="24" fill="#396CF6" fill-opacity="0.2"/>
<circle cx="24" cy="24.9116" r="20" fill="#396CF6"/>
<path d="M31.0588 16.9116H16.9412C16.4263 16.9116 15.9326 17.1161 15.5686 17.4802C15.2045 17.8442 15 18.338 15 18.8528V28.7352C15 29.25 15.2045 29.7437 15.5686 30.1078C15.9326 30.4718 16.4263 30.6763 16.9412 30.6763H31.0588C31.5737 30.6763 32.0674 30.4718 32.4314 30.1078C32.7955 29.7437 33 29.25 33 28.7352V18.8528C33 18.338 32.7955 17.8442 32.4314 17.4802C32.0674 17.1161 31.5737 16.9116 31.0588 16.9116ZM31.9412 28.7352C31.9412 28.9692 31.8482 29.1936 31.6827 29.3591C31.5173 29.5245 31.2928 29.6175 31.0588 29.6175H16.9412C16.7072 29.6175 16.4827 29.5245 16.3173 29.3591C16.1518 29.1936 16.0588 28.9692 16.0588 28.7352V18.8528C16.0588 18.6188 16.1518 18.3944 16.3173 18.2289C16.4827 18.0634 16.7072 17.9704 16.9412 17.9704H31.0588C31.2928 17.9704 31.5173 18.0634 31.6827 18.2289C31.8482 18.3944 31.9412 18.6188 31.9412 18.8528V28.7352ZM27.3529 32.9704C27.3529 33.1109 27.2972 33.2455 27.1979 33.3448C27.0986 33.4441 26.9639 33.4999 26.8235 33.4999H21.1765C21.0361 33.4999 20.9014 33.4441 20.8021 33.3448C20.7028 33.2455 20.6471 33.1109 20.6471 32.9704C20.6471 32.83 20.7028 32.6954 20.8021 32.5961C20.9014 32.4968 21.0361 32.441 21.1765 32.441H26.8235C26.9639 32.441 27.0986 32.4968 27.1979 32.5961C27.2972 32.6954 27.3529 32.83 27.3529 32.9704Z" fill="white"/>
</svg>
