<svg width="48" height="49" viewBox="0 0 48 49" fill="none" xmlns="http://www.w3.org/2000/svg">
<circle cx="24" cy="24.9116" r="24" fill="#396CF6" fill-opacity="0.2"/>
<circle cx="24" cy="24.9116" r="20" fill="#396CF6"/>
<path d="M18.4614 24.9121V21.2707C18.4722 20.5549 18.6241 19.8483 18.9085 19.1914C19.1929 18.5344 19.6041 17.9401 20.1185 17.4423C20.633 16.9446 21.2406 16.5532 21.9066 16.2907C22.5726 16.0282 23.2838 15.8997 23.9996 15.9125C24.7153 15.8997 25.4265 16.0282 26.0925 16.2907C26.7585 16.5532 27.3661 16.9446 27.8806 17.4423C28.3951 17.9401 28.8063 18.5344 29.0906 19.1914C29.375 19.8483 29.5269 20.5549 29.5378 21.2707V24.9121M26.7687 32.1809C27.5031 32.1809 28.2074 31.8892 28.7267 31.3699C29.246 30.8506 29.5378 30.1463 29.5378 29.4118V26.2966M26.7687 32.1809C26.7687 32.6399 26.5863 33.0801 26.2618 33.4047C25.9372 33.7293 25.497 33.9116 25.038 33.9116H22.9612C22.5021 33.9116 22.0619 33.7293 21.7374 33.4047C21.4128 33.0801 21.2305 32.6399 21.2305 32.1809C21.2305 31.7219 21.4128 31.2817 21.7374 30.9572C22.0619 30.6326 22.5021 30.4503 22.9612 30.4503H25.038C25.497 30.4503 25.9372 30.6326 26.2618 30.9572C26.5863 31.2817 26.7687 31.7219 26.7687 32.1809ZM16.3845 22.8352H17.7691C17.9527 22.8352 18.1288 22.9082 18.2586 23.038C18.3884 23.1678 18.4614 23.3439 18.4614 23.5275V27.6812C18.4614 27.8648 18.3884 28.0408 18.2586 28.1707C18.1288 28.3005 17.9527 28.3734 17.7691 28.3734H16.3845C16.0173 28.3734 15.6652 28.2276 15.4055 27.9679C15.1459 27.7083 15 27.3561 15 26.9889V24.2198C15 23.8526 15.1459 23.5004 15.4055 23.2408C15.6652 22.9811 16.0173 22.8352 16.3845 22.8352ZM31.6146 28.3734H30.23C30.0464 28.3734 29.8703 28.3005 29.7405 28.1707C29.6107 28.0408 29.5378 27.8648 29.5378 27.6812V23.5275C29.5378 23.3439 29.6107 23.1678 29.7405 23.038C29.8703 22.9082 30.0464 22.8352 30.23 22.8352H31.6146C31.9818 22.8352 32.3339 22.9811 32.5936 23.2408C32.8533 23.5004 32.9991 23.8526 32.9991 24.2198V26.9889C32.9991 27.3561 32.8533 27.7083 32.5936 27.9679C32.3339 28.2276 31.9818 28.3734 31.6146 28.3734Z" stroke="white" stroke-linecap="round" stroke-linejoin="round"/>
</svg>
