<svg width="48" height="49" viewBox="0 0 48 49" fill="none" xmlns="http://www.w3.org/2000/svg">
<circle cx="24" cy="24.9116" r="24" fill="#396CF6" fill-opacity="0.2"/>
<circle cx="24" cy="24.9116" r="20" fill="#396CF6"/>
<path d="M27.6 18.6116C27.6 17.7728 27.6 17.3534 27.7368 17.0231C27.8273 16.8046 27.9599 16.606 28.1272 16.4388C28.2944 16.2715 28.493 16.1389 28.7115 16.0484C29.0418 15.9116 29.4612 15.9116 30.3 15.9116C31.1388 15.9116 31.5582 15.9116 31.8885 16.0484C32.107 16.1389 32.3056 16.2715 32.4728 16.4388C32.6401 16.606 32.7727 16.8046 32.8632 17.0231C33 17.3534 33 17.7728 33 18.6116V22.2116C33 23.0504 33 23.4698 32.8632 23.8001C32.7727 24.0187 32.6401 24.2172 32.4728 24.3845C32.3056 24.5517 32.107 24.6844 31.8885 24.7748C31.5582 24.9116 31.1388 24.9116 30.3 24.9116C29.4612 24.9116 29.0418 24.9116 28.7115 24.7748C28.493 24.6844 28.2944 24.5517 28.1272 24.3845C27.9599 24.2172 27.8273 24.0187 27.7368 23.8001C27.6 23.4698 27.6 23.0504 27.6 22.2116V18.6116ZM27.6 31.2116C27.6 30.3728 27.6 29.9534 27.7368 29.6231C27.8273 29.4046 27.9599 29.206 28.1272 29.0388C28.2944 28.8715 28.493 28.7389 28.7115 28.6484C29.0418 28.5116 29.4612 28.5116 30.3 28.5116C31.1388 28.5116 31.5582 28.5116 31.8885 28.6484C32.107 28.7389 32.3056 28.8715 32.4728 29.0388C32.6401 29.206 32.7727 29.4046 32.8632 29.6231C33 29.9534 33 30.3728 33 31.2116C33 32.0504 33 32.4698 32.8632 32.8001C32.7727 33.0187 32.6401 33.2172 32.4728 33.3845C32.3056 33.5517 32.107 33.6844 31.8885 33.7748C31.5582 33.9116 31.1388 33.9116 30.3 33.9116C29.4612 33.9116 29.0418 33.9116 28.7115 33.7748C28.493 33.6844 28.2944 33.5517 28.1272 33.3845C27.9599 33.2172 27.8273 33.0187 27.7368 32.8001C27.6 32.4698 27.6 32.0504 27.6 31.2116ZM15 28.5116C15 26.8142 15 25.9664 15.5274 25.439C16.0548 24.9116 16.9026 24.9116 18.6 24.9116H20.4C22.0974 24.9116 22.9452 24.9116 23.4726 25.439C24 25.9664 24 26.8142 24 28.5116V30.3116C24 32.009 24 32.8568 23.4726 33.3842C22.9452 33.9116 22.0974 33.9116 20.4 33.9116H18.6C16.9026 33.9116 16.0548 33.9116 15.5274 33.3842C15 32.8568 15 32.009 15 30.3116V28.5116ZM15 18.6116C15 17.7728 15 17.3534 15.1368 17.0231C15.2273 16.8046 15.3599 16.606 15.5272 16.4388C15.6944 16.2715 15.893 16.1389 16.1115 16.0484C16.4418 15.9116 16.8612 15.9116 17.7 15.9116H21.3C22.1388 15.9116 22.5582 15.9116 22.8885 16.0484C23.107 16.1389 23.3056 16.2715 23.4728 16.4388C23.6401 16.606 23.7727 16.8046 23.8632 17.0231C24 17.3534 24 17.7728 24 18.6116C24 19.4504 24 19.8698 23.8632 20.2001C23.7727 20.4187 23.6401 20.6172 23.4728 20.7845C23.3056 20.9517 23.107 21.0844 22.8885 21.1748C22.5582 21.3116 22.1388 21.3116 21.3 21.3116H17.7C16.8612 21.3116 16.4418 21.3116 16.1115 21.1748C15.893 21.0844 15.6944 20.9517 15.5272 20.7845C15.3599 20.6172 15.2273 20.4187 15.1368 20.2001C15 19.8698 15 19.4504 15 18.6116Z" stroke="white" stroke-linecap="round" stroke-linejoin="round"/>
</svg>
