<svg width="18" height="17" viewBox="0 0 18 17" fill="none" xmlns="http://www.w3.org/2000/svg">
<path d="M16.0588 0H1.94118C1.42634 0 0.932599 0.204516 0.568557 0.568557C0.204516 0.932599 0 1.42634 0 1.94118V11.8235C0 12.3384 0.204516 12.8321 0.568557 13.1961C0.932599 13.5602 1.42634 13.7647 1.94118 13.7647H16.0588C16.5737 13.7647 17.0674 13.5602 17.4314 13.1961C17.7955 12.8321 18 12.3384 18 11.8235V1.94118C18 1.42634 17.7955 0.932599 17.4314 0.568557C17.0674 0.204516 16.5737 0 16.0588 0ZM16.9412 11.8235C16.9412 12.0575 16.8482 12.282 16.6827 12.4474C16.5173 12.6129 16.2928 12.7059 16.0588 12.7059H1.94118C1.70716 12.7059 1.48273 12.6129 1.31726 12.4474C1.15179 12.282 1.05882 12.0575 1.05882 11.8235V1.94118C1.05882 1.70716 1.15179 1.48273 1.31726 1.31726C1.48273 1.15179 1.70716 1.05882 1.94118 1.05882H16.0588C16.2928 1.05882 16.5173 1.15179 16.6827 1.31726C16.8482 1.48273 16.9412 1.70716 16.9412 1.94118V11.8235ZM12.3529 16.0588C12.3529 16.1992 12.2972 16.3339 12.1979 16.4332C12.0986 16.5325 11.9639 16.5882 11.8235 16.5882H6.17647C6.03606 16.5882 5.9014 16.5325 5.80212 16.4332C5.70284 16.3339 5.64706 16.1992 5.64706 16.0588C5.64706 15.9184 5.70284 15.7838 5.80212 15.6845C5.9014 15.5852 6.03606 15.5294 6.17647 15.5294H11.8235C11.9639 15.5294 12.0986 15.5852 12.1979 15.6845C12.2972 15.7838 12.3529 15.9184 12.3529 16.0588Z" fill="#396CF6"/>
</svg>
