<svg width="19" height="20" viewBox="0 0 19 20" fill="none" xmlns="http://www.w3.org/2000/svg">
<path d="M15.1111 20C14.2778 20 13.5694 19.7083 12.9861 19.125C12.4028 18.5417 12.1111 17.8333 12.1111 17C12.1111 16.9 12.1361 16.6667 12.1861 16.3L5.16108 12.2C4.89442 12.45 4.58608 12.646 4.23608 12.788C3.88608 12.93 3.51108 13.0007 3.11108 13C2.27775 13 1.56942 12.7083 0.986084 12.125C0.402751 11.5417 0.111084 10.8333 0.111084 10C0.111084 9.16667 0.402751 8.45833 0.986084 7.875C1.56942 7.29167 2.27775 7 3.11108 7C3.51108 7 3.88608 7.071 4.23608 7.213C4.58608 7.355 4.89442 7.55067 5.16108 7.8L12.1861 3.7C12.1528 3.58333 12.1321 3.471 12.1241 3.363C12.1161 3.255 12.1118 3.134 12.1111 3C12.1111 2.16667 12.4028 1.45833 12.9861 0.875C13.5694 0.291667 14.2778 0 15.1111 0C15.9444 0 16.6528 0.291667 17.2361 0.875C17.8194 1.45833 18.1111 2.16667 18.1111 3C18.1111 3.83333 17.8194 4.54167 17.2361 5.125C16.6528 5.70833 15.9444 6 15.1111 6C14.7111 6 14.3361 5.929 13.9861 5.787C13.6361 5.645 13.3278 5.44933 13.0611 5.2L6.03608 9.3C6.06942 9.41667 6.09042 9.52933 6.09908 9.638C6.10775 9.74667 6.11175 9.86733 6.11108 10C6.11042 10.1327 6.10642 10.2537 6.09908 10.363C6.09175 10.4723 6.07075 10.5847 6.03608 10.7L13.0611 14.8C13.3278 14.55 13.6361 14.3543 13.9861 14.213C14.3361 14.0717 14.7111 14.0007 15.1111 14C15.9444 14 16.6528 14.2917 17.2361 14.875C17.8194 15.4583 18.1111 16.1667 18.1111 17C18.1111 17.8333 17.8194 18.5417 17.2361 19.125C16.6528 19.7083 15.9444 20 15.1111 20Z" fill="#396CF6"/>
</svg>
