<svg width="18" height="18" viewBox="0 0 18 18" fill="none" xmlns="http://www.w3.org/2000/svg">
<path fill-rule="evenodd" clip-rule="evenodd" d="M9.32563 0C8.27093 0 7.25943 0.418977 6.51365 1.16476C5.76786 1.91055 5.34888 2.92205 5.34888 3.97674C5.34888 5.03144 5.76786 6.04294 6.51365 6.78873C7.25943 7.53451 8.27093 7.95349 9.32563 7.95349C10.3803 7.95349 11.3918 7.53451 12.1376 6.78873C12.8834 6.04294 13.3024 5.03144 13.3024 3.97674C13.3024 2.92205 12.8834 1.91055 12.1376 1.16476C11.3918 0.418977 10.3803 0 9.32563 0ZM6.6047 3.97674C6.6047 3.25511 6.89137 2.56303 7.40164 2.05276C7.91191 1.54248 8.60399 1.25581 9.32563 1.25581C10.0473 1.25581 10.7393 1.54248 11.2496 2.05276C11.7599 2.56303 12.0466 3.25511 12.0466 3.97674C12.0466 4.69838 11.7599 5.39046 11.2496 5.90073C10.7393 6.41101 10.0473 6.69767 9.32563 6.69767C8.60399 6.69767 7.91191 6.41101 7.40164 5.90073C6.89137 5.39046 6.6047 4.69838 6.6047 3.97674ZM9.32563 9.2093C7.38916 9.2093 5.60423 9.64967 4.28228 10.3931C2.97958 11.1265 2.00005 12.2367 2.00005 13.6047V13.69C1.99921 14.6629 1.99837 15.8835 3.06916 16.7559C3.59577 17.1846 4.33335 17.4901 5.32963 17.6911C6.32758 17.8937 7.62944 18 9.32563 18C11.0218 18 12.3228 17.8937 13.3225 17.6911C14.3187 17.4901 15.0555 17.1846 15.5829 16.7559C16.6537 15.8835 16.652 14.6629 16.6512 13.69V13.6047C16.6512 12.2367 15.6717 11.1265 14.3698 10.3931C13.047 9.64967 11.2629 9.2093 9.32563 9.2093ZM3.25586 13.6047C3.25586 12.8922 3.7766 12.1186 4.89763 11.4882C5.9994 10.8687 7.5633 10.4651 9.32647 10.4651C11.088 10.4651 12.6519 10.8687 13.7536 11.4882C14.8755 12.1186 15.3954 12.8922 15.3954 13.6047C15.3954 14.6997 15.3619 15.3159 14.7893 15.7814C14.4795 16.0342 13.9604 16.2812 13.073 16.4604C12.188 16.6395 10.9783 16.7442 9.32563 16.7442C7.67298 16.7442 6.46237 16.6395 5.57828 16.4604C4.69084 16.2812 4.17177 16.0342 3.862 15.7822C3.28935 15.3159 3.25586 14.6997 3.25586 13.6047Z" fill="white"/>
</svg>
