<svg width="16" height="20" viewBox="0 0 16 20" fill="none" xmlns="http://www.w3.org/2000/svg">
<path fill-rule="evenodd" clip-rule="evenodd" d="M0.5 1C0.5 0.723858 0.723858 0.5 1 0.5H15C15.2761 0.5 15.5 0.723858 15.5 1V19C15.5 19.1952 15.3864 19.3726 15.209 19.4542C15.0316 19.5358 14.823 19.5067 14.6747 19.3797L13.6427 18.4957C13.3709 18.2627 13.0245 18.1346 12.6665 18.1346C12.3085 18.1346 11.9622 18.2627 11.6904 18.4956L10.6583 19.3797C10.471 19.5401 10.1947 19.5401 10.0075 19.3796L8.97654 18.4956C8.70464 18.2624 8.35821 18.1342 8 18.1342C7.64179 18.1342 7.29541 18.2623 7.0235 18.4955L5.99246 19.3796C5.80526 19.5401 5.529 19.5401 5.34173 19.3797L4.30973 18.4957C4.03787 18.2627 3.69154 18.1346 3.3335 18.1346C2.97546 18.1346 2.62923 18.2627 2.35738 18.4956L1.32527 19.3797C1.177 19.5067 0.968361 19.5358 0.790999 19.4542C0.613638 19.3726 0.5 19.1952 0.5 19V1ZM1.5 1.5V17.9133L1.70662 17.7364C2.15972 17.348 2.73677 17.1346 3.3335 17.1346C3.93023 17.1346 4.50728 17.348 4.96038 17.7364L5.66684 18.3415L6.3725 17.7365C6.82568 17.3478 7.40299 17.1342 8 17.1342C8.59701 17.1342 9.17432 17.3478 9.6275 17.7365L10.3332 18.3415L11.0396 17.7364C11.0396 17.7364 11.0397 17.7363 11.0396 17.7364C11.4927 17.3481 12.0698 17.1346 12.6665 17.1346C13.2632 17.1346 13.8402 17.348 14.2933 17.7363C14.2932 17.7362 14.2933 17.7363 14.2933 17.7363L14.5 17.9133V1.5H1.5ZM4.5 5C4.5 4.72386 4.72386 4.5 5 4.5H11C11.2761 4.5 11.5 4.72386 11.5 5C11.5 5.27614 11.2761 5.5 11 5.5H5C4.72386 5.5 4.5 5.27614 4.5 5ZM4.5 9C4.5 8.72386 4.72386 8.5 5 8.5H11C11.2761 8.5 11.5 8.72386 11.5 9C11.5 9.27614 11.2761 9.5 11 9.5H5C4.72386 9.5 4.5 9.27614 4.5 9ZM6.5 13C6.5 12.7239 6.72386 12.5 7 12.5H11C11.2761 12.5 11.5 12.7239 11.5 13C11.5 13.2761 11.2761 13.5 11 13.5H7C6.72386 13.5 6.5 13.2761 6.5 13Z" fill="#396CF6"/>
</svg>
