<svg width="48" height="49" viewBox="0 0 48 49" fill="none" xmlns="http://www.w3.org/2000/svg">
<circle cx="24" cy="24.9116" r="24" fill="#396CF6" fill-opacity="0.2"/>
<circle cx="24" cy="24.9116" r="20" fill="#396CF6"/>
<path fill-rule="evenodd" clip-rule="evenodd" d="M16.5 15.9116C16.5 15.6355 16.7239 15.4116 17 15.4116H31C31.2761 15.4116 31.5 15.6355 31.5 15.9116V33.9116C31.5 34.1069 31.3864 34.2842 31.209 34.3658C31.0316 34.4475 30.823 34.4184 30.6747 34.2914L29.6427 33.4074C29.3709 33.1744 29.0245 33.0462 28.6665 33.0462C28.3085 33.0462 27.9622 33.1743 27.6904 33.4073L26.6583 34.2914C26.471 34.4518 26.1947 34.4517 26.0075 34.2912L24.9765 33.4072C24.7046 33.174 24.3582 33.0458 24 33.0458C23.6418 33.0458 23.2954 33.174 23.0235 33.4072L21.9925 34.2912C21.8053 34.4517 21.529 34.4518 21.3417 34.2914L20.3097 33.4074C20.0379 33.1744 19.6915 33.0462 19.3335 33.0462C18.9755 33.0462 18.6292 33.1743 18.3574 33.4073L17.3253 34.2914C17.177 34.4184 16.9684 34.4475 16.791 34.3658C16.6136 34.2842 16.5 34.1069 16.5 33.9116V15.9116ZM17.5 16.4116V32.825L17.7066 32.648C18.1597 32.2597 18.7368 32.0462 19.3335 32.0462C19.9302 32.0462 20.5073 32.2597 20.9604 32.648L21.6668 33.2531L22.3725 32.6481C22.8257 32.2594 23.403 32.0458 24 32.0458C24.597 32.0458 25.1743 32.2594 25.6275 32.6481L26.3332 33.2531L27.0396 32.648C27.0396 32.648 27.0397 32.6479 27.0396 32.648C27.4927 32.2597 28.0698 32.0462 28.6665 32.0462C29.2632 32.0462 29.8402 32.2596 30.2933 32.6479C30.2932 32.6479 30.2933 32.6479 30.2933 32.6479L30.5 32.825V16.4116H17.5ZM20.5 19.9116C20.5 19.6355 20.7239 19.4116 21 19.4116H27C27.2761 19.4116 27.5 19.6355 27.5 19.9116C27.5 20.1878 27.2761 20.4116 27 20.4116H21C20.7239 20.4116 20.5 20.1878 20.5 19.9116ZM20.5 23.9116C20.5 23.6355 20.7239 23.4116 21 23.4116H27C27.2761 23.4116 27.5 23.6355 27.5 23.9116C27.5 24.1878 27.2761 24.4116 27 24.4116H21C20.7239 24.4116 20.5 24.1878 20.5 23.9116ZM22.5 27.9116C22.5 27.6355 22.7239 27.4116 23 27.4116H27C27.2761 27.4116 27.5 27.6355 27.5 27.9116C27.5 28.1878 27.2761 28.4116 27 28.4116H23C22.7239 28.4116 22.5 28.1878 22.5 27.9116Z" fill="white"/>
</svg>
