<svg width="20" height="20" viewBox="0 0 20 20" fill="none" xmlns="http://www.w3.org/2000/svg">
<path d="M7.0436 0C6.42792 0 5.83745 0.244578 5.4021 0.679931C4.96675 1.11528 4.72217 1.70575 4.72217 2.32143V15.1786C4.72217 15.4834 4.78221 15.7853 4.89888 16.0669C5.01554 16.3486 5.18653 16.6045 5.4021 16.8201C5.61766 17.0356 5.87358 17.2066 6.15522 17.3233C6.43687 17.44 6.73874 17.5 7.0436 17.5H15.615C15.9199 17.5 16.2217 17.44 16.5034 17.3233C16.785 17.2066 17.041 17.0356 17.2565 16.8201C17.4721 16.6045 17.6431 16.3486 17.7597 16.0669C17.8764 15.7853 17.9365 15.4834 17.9365 15.1786V2.32143C17.9365 1.70575 17.6919 1.11528 17.2565 0.679931C16.8212 0.244578 16.2307 0 15.615 0H7.0436ZM6.15074 2.32143C6.15074 1.82857 6.55074 1.42857 7.0436 1.42857H15.615C16.1079 1.42857 16.5079 1.82857 16.5079 2.32143V15.1786C16.5079 15.6714 16.1079 16.0714 15.615 16.0714H7.0436C6.55074 16.0714 6.15074 15.6714 6.15074 15.1786V2.32143ZM3.65074 2.67786C2.81217 3.02786 2.22217 3.85571 2.22217 4.82071V15.3571C2.22217 15.9669 2.34226 16.5706 2.57558 17.1339C2.80891 17.6972 3.1509 18.209 3.58203 18.6401C4.45273 19.5108 5.63366 20 6.86503 20H13.115C13.5735 20.0001 14.0217 19.8645 14.4031 19.6103C14.7846 19.3561 15.0823 18.9946 15.2586 18.5714H6.86503C6.01254 18.5714 5.19498 18.2328 4.59218 17.63C3.98939 17.0272 3.65074 16.2096 3.65074 15.3571V2.67786Z" fill="#396CF6"/>
</svg>
