<svg width="100" height="101" viewBox="0 0 100 101" fill="none" xmlns="http://www.w3.org/2000/svg">
<circle cx="50" cy="50.4561" r="50" fill="#DCFCE7"/>
<circle cx="49.9997" cy="50.4557" r="41.6667" fill="#22C55E"/>
<path d="M68.1118 39.568L45.0417 62.6381C44.8408 62.8397 44.602 62.9997 44.3391 63.1089C44.0762 63.218 43.7944 63.2742 43.5097 63.2742C43.2251 63.2742 42.9432 63.218 42.6803 63.1089C42.4174 62.9997 42.1787 62.8397 41.9777 62.6381L31.8846 52.5449C31.6834 52.3438 31.5238 52.1049 31.4149 51.842C31.306 51.5792 31.25 51.2975 31.25 51.0129C31.25 50.7284 31.306 50.4467 31.4149 50.1838C31.5238 49.921 31.6834 49.6821 31.8846 49.4809C32.0858 49.2798 32.3246 49.1202 32.5875 49.0113C32.8503 48.9024 33.1321 48.8464 33.4166 48.8464C33.7011 48.8464 33.9828 48.9024 34.2457 49.0113C34.5085 49.1202 34.7474 49.2798 34.9486 49.4809L43.5115 58.0439L65.0514 36.5076C65.4577 36.1013 66.0088 35.873 66.5834 35.873C67.158 35.873 67.7091 36.1013 68.1154 36.5076C68.5217 36.9139 68.75 37.465 68.75 38.0396C68.75 38.6142 68.5217 39.1653 68.1154 39.5716L68.1118 39.568Z" fill="white"/>
</svg>
