<svg width="18" height="18" viewBox="0 0 18 18" fill="none" xmlns="http://www.w3.org/2000/svg">
<path fill-rule="evenodd" clip-rule="evenodd" d="M13.9361 12.748L13.794 12.9244L17.7987 16.9306L17.8052 16.9367C17.8656 16.9929 17.914 17.0607 17.9475 17.136C17.9811 17.2113 17.9991 17.2926 18.0006 17.3751C18.002 17.4575 17.9869 17.5394 17.956 17.6159C17.9251 17.6924 17.8791 17.7618 17.8208 17.8201C17.7625 17.8785 17.693 17.9244 17.6166 17.9553C17.5401 17.9862 17.4582 18.0014 17.3758 17.9999C17.2933 17.9984 17.212 17.9804 17.1367 17.9468C17.0613 17.9133 16.9937 17.8648 16.9374 17.8044L12.9251 13.7933L12.7486 13.9354C11.5976 14.8625 10.2078 15.4452 8.73973 15.616C7.27165 15.7868 5.78521 15.5388 4.45206 14.9008C3.11892 14.2627 1.99346 13.2605 1.20567 12.01C0.417881 10.7595 -0.000100381 9.31161 1.80829e-08 7.83364C0.000105706 6.5809 0.300627 5.34645 0.876355 4.23385C1.45208 3.12124 2.28623 2.16292 3.30882 1.43928C4.33141 0.715637 5.51263 0.24777 6.75339 0.0749274C7.99414 -0.0979152 9.25826 0.0293063 10.4397 0.44592C11.6211 0.862534 12.6854 1.55639 13.5433 2.46929C14.4012 3.38219 15.0277 4.4875 15.3701 5.69251C15.7126 6.89753 15.7611 8.1671 15.5116 9.39474C15.2621 10.6224 14.7218 11.7723 13.9361 12.748ZM7.8343 1.22748C6.08224 1.22748 4.40194 1.92348 3.16305 3.16237C1.92416 4.40126 1.22816 6.08156 1.22816 7.83362C1.22816 9.58567 1.92416 11.266 3.16305 12.5049C4.40194 13.7438 6.08224 14.4398 7.8343 14.4398C9.58635 14.4398 11.2667 13.7438 12.5055 12.5049C13.7444 11.266 14.4404 9.58567 14.4404 7.83362C14.4404 6.08156 13.7444 4.40126 12.5055 3.16237C11.2667 1.92348 9.58635 1.22748 7.8343 1.22748Z" fill="#94A3B8"/>
</svg>
