<svg width="350" height="98" viewBox="0 0 350 98" fill="none" xmlns="http://www.w3.org/2000/svg">
<path d="M181.401 60.9517C181.401 61.8601 181.48 62.5599 181.64 63.0588C181.8 63.5576 181.978 63.9299 182.183 64.1793C182.388 64.4287 182.567 64.6111 182.727 64.7228C182.887 64.8345 182.965 64.9611 182.965 65.0951C182.965 65.3668 182.864 65.754 182.66 66.2491C182.455 66.748 182.116 67.2356 181.64 67.7084C181.163 68.1849 180.553 68.6019 179.804 68.9667C179.056 69.3278 178.14 69.5102 177.053 69.5102C175.468 69.5102 174.209 68.989 173.282 67.9467C172.352 66.9043 171.89 65.0914 171.89 62.5116V44.1662C171.89 43.0345 171.868 42.1187 171.823 41.4151C171.778 40.7115 171.73 40.1345 171.685 39.6841C171.641 39.2336 171.592 38.8911 171.548 38.664C171.503 38.437 171.481 38.2322 171.481 38.0535C171.481 37.7371 171.626 37.376 171.924 36.9665C172.218 36.5607 172.638 36.1736 173.182 35.8125C173.725 35.4514 174.369 35.1461 175.118 34.8967C175.866 34.6473 176.67 34.5244 177.53 34.5244C178.528 34.5244 179.421 34.8892 180.214 35.6114C181.007 36.3374 181.401 37.6961 181.401 39.6878V60.9555V60.9517Z" fill="white"/>
<path d="M137.711 28.9523C137.711 29.5404 137.7 30.244 137.677 31.0593C137.655 31.8746 137.644 32.7233 137.644 33.6056C137.644 34.4879 137.633 35.3962 137.61 36.3232C137.588 37.2538 137.577 38.1473 137.577 39.0072V41.386H155.855V39.0742C155.855 38.2143 155.844 37.239 155.822 36.1519C155.8 35.0649 155.788 33.9444 155.788 32.7903C155.788 31.6363 155.777 30.4934 155.755 29.358C155.733 28.2263 155.721 27.2063 155.721 26.3017V24.9429C155.721 23.7666 156.243 22.8024 157.285 22.0541C158.327 21.3059 159.571 20.9336 161.022 20.9336C162.474 20.9336 163.558 21.3431 164.421 22.1584C165.281 22.9736 165.713 24.3771 165.713 26.3724C165.713 29.1347 165.691 32.124 165.646 35.3404C165.601 38.5568 165.579 41.6838 165.579 44.7178V60.9562C165.579 61.9985 165.657 62.7579 165.817 63.2307C165.977 63.7072 166.156 64.0572 166.361 64.2842C166.566 64.5113 166.755 64.6565 166.938 64.7272C167.116 64.7943 167.232 64.9208 167.277 65.0995C167.277 65.3713 167.176 65.7584 166.971 66.2535C166.767 66.7524 166.439 67.2401 165.985 67.7128C165.531 68.1893 164.931 68.6063 164.183 68.9711C163.435 69.3322 162.519 69.5146 161.432 69.5146C159.708 69.5146 158.35 68.9934 157.356 67.9511C156.358 66.9087 155.863 65.0958 155.863 62.516V49.8775H137.584V61.7007C137.584 63.4243 137.629 64.5783 137.718 65.1665C137.808 65.7547 137.856 66.2089 137.856 66.5253C137.856 66.8417 137.663 67.1842 137.279 67.5453C136.896 67.9064 136.404 68.2377 135.82 68.5318C135.232 68.8259 134.584 69.0642 133.884 69.2466C133.18 69.4253 132.514 69.5183 131.881 69.5183C130.251 69.5183 129.153 69.0418 128.587 68.0926C128.021 67.1395 127.738 65.9855 127.738 64.6267V63.0297C127.738 62.1921 127.749 61.1833 127.771 60.0069C127.794 58.8305 127.805 57.5611 127.805 56.2023C127.805 54.8435 127.816 53.5071 127.838 52.193C127.861 50.8789 127.872 49.669 127.872 48.5596V42.1715C127.872 41.0175 127.861 39.748 127.838 38.3669C127.816 36.9858 127.805 35.5489 127.805 34.0523C127.805 32.5558 127.794 31.1635 127.771 29.8718C127.749 28.58 127.738 27.493 127.738 26.6107V25.0137C127.738 23.882 128.237 22.9178 129.231 22.1249C130.228 21.3319 131.449 20.9373 132.901 20.9373C134.215 20.9373 135.347 21.2872 136.3 21.9908C137.249 22.6944 137.726 23.9713 137.726 25.8289V28.956L137.711 28.9523Z" fill="white"/>
<path d="M176.649 31.1267C175.153 31.1267 173.876 30.7098 172.811 29.8685C171.747 29.0309 171.214 27.8657 171.214 26.3691C171.214 24.8726 171.747 23.6851 172.811 22.8028C173.876 21.9205 175.157 21.4775 176.649 21.4775C178.142 21.4775 179.367 21.887 180.454 22.7023C181.541 23.5176 182.085 24.7386 182.085 26.3729C182.085 27.8694 181.541 29.0346 180.454 29.8722C179.367 30.7098 178.098 31.1305 176.649 31.1305V31.1267Z" fill="white"/>
<path d="M210.726 26.0299C211.631 24.7158 212.807 23.5395 214.259 22.4971C215.707 21.4548 217.43 20.9336 219.422 20.9336C221.235 20.9336 223.182 21.317 225.267 22.0876C227.351 22.8582 229.298 24.1612 231.111 25.9927C232.924 27.828 234.428 30.2403 235.631 33.2296C236.829 36.2189 237.432 39.9565 237.432 44.4423C237.432 47.1599 237.049 50.004 236.278 52.971C235.508 55.938 234.216 58.6444 232.407 61.0902C230.594 63.536 228.17 65.5537 225.136 67.1358C222.102 68.7217 218.343 69.5146 213.857 69.5146C211.228 69.5146 209.066 69.3099 207.368 68.9041C205.671 68.4983 204.334 67.9325 203.359 67.2066C202.383 66.4844 201.706 65.6095 201.322 64.5895C200.939 63.5695 200.745 62.449 200.745 61.2279C200.745 60.8668 200.757 60.1186 200.779 58.9869C200.801 57.8552 200.812 56.5411 200.812 55.0445C200.812 53.548 200.824 52.0106 200.846 50.4247C200.868 48.8388 200.879 47.3907 200.879 46.0766V42.205C200.879 41.0733 200.868 39.815 200.846 38.4339C200.824 37.0528 200.812 35.6159 200.812 34.1193C200.812 32.6228 200.801 31.2417 200.779 29.976C200.757 28.7066 200.745 27.6195 200.745 26.7149V25.0174C200.745 24.6116 200.891 24.1686 201.188 23.6921C201.483 23.2156 201.892 22.7763 202.413 22.3668C202.934 21.9573 203.567 21.6186 204.315 21.3468C205.064 21.0751 205.913 20.9373 206.862 20.9373C208.038 20.9373 208.98 21.3691 209.68 22.2291C210.383 23.089 210.733 24.3585 210.733 26.0337L210.726 26.0299ZM217.654 29.358C216.656 29.358 215.729 29.5069 214.869 29.801C214.009 30.0951 213.261 30.5046 212.628 31.0258C211.995 31.547 211.497 32.1575 211.135 32.8611C210.771 33.5647 210.592 34.3204 210.592 35.1356V59.3926C210.592 59.6197 210.648 59.8356 210.763 60.0367C210.875 60.2414 211.102 60.4462 211.444 60.6472C211.787 60.8482 212.293 61.012 212.974 61.1237C213.652 61.2354 214.56 61.2949 215.692 61.2949C219.768 61.2949 222.791 59.7984 224.764 56.8091C226.733 53.8198 227.72 49.6988 227.72 44.4423C227.72 39.1859 226.778 35.5302 224.898 33.0621C223.018 30.594 220.606 29.358 217.661 29.358H217.654Z" fill="white"/>
<path d="M272.414 65.3022C272.414 65.667 272.309 66.084 272.105 66.5605C271.904 67.037 271.572 67.4986 271.122 67.9528C270.668 68.4032 270.091 68.7792 269.387 69.0696C268.687 69.3674 267.835 69.5126 266.837 69.5126C265.932 69.5126 265.151 69.3674 264.495 69.0696C263.84 68.7755 263.308 68.392 262.902 67.9155C262.493 67.4428 262.187 66.8993 261.986 66.2887C261.782 65.6782 261.655 65.0528 261.614 64.4199C260.296 65.9611 258.588 67.1971 256.484 68.124C254.377 69.051 252.054 69.5163 249.519 69.5163C247.479 69.5163 245.703 69.2185 244.185 68.634C242.666 68.0458 241.4 67.2752 240.384 66.3222C239.367 65.3692 238.604 64.3157 238.105 63.1617C237.607 62.0076 237.357 60.8424 237.357 59.6624C237.357 57.8941 237.741 56.3343 238.511 54.9718C238.615 54.7894 238.723 54.6069 238.839 54.4357C239.557 53.3077 240.458 52.3324 241.538 51.506C242.781 50.5567 244.196 49.8419 245.785 49.3691C246.005 49.3021 246.228 49.2426 246.448 49.183C247.81 48.8293 249.173 48.6544 250.539 48.6544C252.17 48.6544 253.566 48.9522 254.72 49.5367C255.081 49.7191 255.382 49.935 255.632 50.1807C256.179 50.7242 256.451 51.4129 256.451 52.2505C256.451 53.2482 256.224 53.9406 255.773 54.324C255.319 54.7075 254.776 54.9048 254.143 54.9048H253.193C252.646 54.9048 251.98 54.9271 251.187 54.9718C250.394 55.0202 249.635 55.143 248.909 55.344C248.186 55.5488 247.565 55.8689 247.044 56.297C246.522 56.7252 246.262 57.3506 246.262 58.1621C246.262 58.3482 246.28 58.5269 246.318 58.7056C246.444 59.3348 246.813 59.8932 247.416 60.3734C248.186 60.9839 249.635 61.2892 251.764 61.2892C252.94 61.2892 254.094 61.1738 255.23 60.9467C256.358 60.7196 257.355 60.3585 258.219 59.8597C259.079 59.3608 259.771 58.728 260.293 57.9574C260.814 57.1868 261.074 56.2598 261.074 55.1691V52.928C261.074 51.7963 261.018 50.6274 260.907 49.425C260.817 48.4831 260.602 47.5971 260.259 46.7819C260.166 46.5585 260.065 46.3426 259.954 46.1304C259.433 45.1364 258.629 44.3212 257.545 43.6846C257.072 43.4091 256.514 43.1932 255.877 43.0406C255.051 42.8395 254.091 42.7353 252.992 42.7353C251.317 42.7353 249.903 42.9177 248.745 43.2788C247.591 43.6436 246.653 44.0383 245.927 44.4664C245.201 44.8982 244.635 45.2965 244.229 45.6576C243.82 46.0224 243.526 46.2011 243.347 46.2011C242.442 46.2011 241.649 45.9182 240.968 45.3486C240.291 44.7828 239.948 43.9824 239.948 42.9401C239.948 42.5827 239.982 42.2365 240.056 41.894C240.227 41.0638 240.614 40.2783 241.206 39.5412C242.048 38.4989 243.153 37.6055 244.534 36.8572C245.916 36.1089 247.479 35.5319 249.225 35.1261C250.967 34.7166 252.747 34.5156 254.556 34.5156C256.365 34.5156 257.843 34.6608 259.228 34.9512C260.598 35.2415 261.808 35.6734 262.846 36.2467C264.927 37.4007 266.528 38.8749 267.634 40.6655C268.743 42.4561 269.48 44.4254 269.845 46.5771C269.912 46.9717 269.968 47.3626 270.02 47.7498C270.258 49.4436 270.381 51.0816 270.385 52.6749V60.8797C270.385 61.8736 270.489 62.6219 270.69 63.1207C270.895 63.6196 271.133 63.9918 271.405 64.2413C271.677 64.4907 271.915 64.6694 272.116 64.7848C272.321 64.9002 272.425 65.0677 272.425 65.2948L272.414 65.3022Z" fill="white"/>
<path d="M303.052 52.3226C303.052 53.3202 302.937 54.0685 302.714 54.5636C302.487 55.0625 302.032 55.3119 301.355 55.3119C300.856 55.3119 300.424 55.2225 300.063 55.0401C299.836 56.5813 299.393 58.2007 298.738 59.8982C298.079 61.5958 297.185 63.1593 296.054 64.5851C294.922 66.0109 293.526 67.191 291.873 68.1179C290.22 69.0449 288.285 69.5102 286.062 69.5102C284.115 69.5102 282.403 69.1714 280.932 68.4902C279.458 67.8127 278.237 66.882 277.262 65.7056C276.286 64.5292 275.564 63.137 275.088 61.5288C274.611 59.9206 274.373 58.1672 274.373 56.2612V44.1662C274.373 43.0345 274.339 42.1187 274.272 41.4151C274.205 40.7115 274.123 40.1345 274.034 39.6841C273.945 39.2336 273.863 38.8911 273.796 38.664C273.729 38.437 273.695 38.2322 273.695 38.0535C273.695 37.7371 273.841 37.376 274.138 36.9665C274.432 36.5607 274.853 36.1736 275.397 35.8125C275.94 35.4514 276.573 35.1461 277.299 34.8967C278.025 34.6473 278.818 34.5244 279.678 34.5244C280.765 34.5244 281.736 34.9227 282.6 35.712C283.46 36.5049 283.892 38.0126 283.892 40.2313V54.5673C283.892 56.7861 284.208 58.465 284.845 59.5967C285.478 60.7284 286.587 61.2942 288.173 61.2942C289.398 61.2942 290.436 60.8996 291.3 60.1067C292.16 59.3138 292.837 58.331 293.336 57.1509C293.835 55.9745 294.196 54.6716 294.423 53.2458C294.65 51.82 294.762 50.4947 294.762 49.27C294.762 49.0429 294.684 48.7376 294.524 48.3542C294.364 47.9707 294.241 47.6171 294.152 47.3007C293.697 45.9866 293.392 44.6836 293.236 43.3956C293.076 42.1038 292.997 40.9833 292.997 40.034C292.997 38.221 293.485 36.8511 294.457 35.9241C295.432 34.9972 296.597 34.5319 297.956 34.5319C299.404 34.5319 300.618 34.9637 301.589 35.8236C302.565 36.6836 303.049 38.0647 303.049 39.967V52.3337L303.052 52.3226Z" fill="white"/>
<path d="M336.112 66.3851C335.68 65.8639 335.282 65.6033 334.925 65.6033C334.742 65.6033 334.4 65.8416 333.905 66.3144C333.402 66.7909 332.691 67.3121 331.764 67.8779C330.837 68.4475 329.668 68.9686 328.265 69.4452C326.861 69.9179 325.16 70.1562 323.168 70.1562C321.851 70.1562 320.618 69.9663 319.464 69.5792C318.679 69.3186 317.96 68.9687 317.301 68.5219C316.527 68.3358 315.775 68.0975 315.046 67.8109C312.849 66.951 310.947 65.7485 309.339 64.2111C307.73 62.6699 306.476 60.8234 305.564 58.6754C305.24 57.9086 304.976 57.1231 304.771 56.3115C304.395 57.7745 304.205 59.312 304.205 60.9165C304.205 63.4554 304.656 65.7969 305.56 67.9486C306.468 70.1003 307.723 71.9468 309.335 73.4843C310.939 75.0255 312.845 76.2279 315.042 77.0841C317.238 77.944 319.628 78.3759 322.215 78.3759C324.523 78.3759 326.571 78.0706 328.362 77.4601C330.152 76.8496 331.667 76.0678 332.914 75.1185C334.162 74.1692 335.111 73.1232 335.766 71.9952C336.421 70.8635 336.753 69.7727 336.753 68.7304C336.753 67.688 336.537 66.9063 336.108 66.3888L336.112 66.3851Z" fill="white"/>
<path d="M336.756 57.3284C336.756 58.3708 336.425 59.4541 335.77 60.5895C335.115 61.7212 334.165 62.7635 332.918 63.7128C331.671 64.6658 330.152 65.4476 328.365 66.0581C326.575 66.6686 324.527 66.9739 322.219 66.9739C320.492 66.9739 318.854 66.7803 317.301 66.3931C316.527 66.207 315.775 65.9688 315.046 65.6821C312.849 64.8222 310.947 63.6197 309.339 62.0823C307.73 60.5411 306.476 58.6946 305.564 56.5466C305.24 55.7798 304.976 54.9943 304.771 54.1827C304.395 52.7086 304.205 51.1525 304.205 49.5145C304.205 47.0203 304.656 44.7011 305.56 42.5494C306.468 40.4014 307.723 38.54 309.335 36.9802C310.939 35.4167 312.834 34.1919 315.008 33.3097C317.182 32.4274 319.561 31.9844 322.145 31.9844C323.999 31.9844 325.767 32.2226 327.442 32.6954C329.117 33.1719 330.603 33.8755 331.894 34.8024C333.186 35.7294 334.214 36.8723 334.984 38.2348C335.755 39.5898 336.138 41.1794 336.138 42.9886C336.138 44.4368 335.855 45.8179 335.289 47.132C335.215 47.3032 335.137 47.4745 335.055 47.642C334.504 48.7476 333.767 49.7304 332.844 50.5978C331.775 51.5955 330.487 52.3772 328.968 52.9394C328.455 53.1292 327.922 53.293 327.368 53.4159C326.273 53.6653 325.1 53.7881 323.839 53.7881C321.843 53.7881 320.406 53.4605 319.524 52.8016C318.645 52.1464 318.199 51.3423 318.199 50.393C318.199 50.3633 318.199 50.3335 318.199 50.3074C318.221 49.4475 318.604 48.8407 319.349 48.487C320.12 48.1222 321.024 47.9398 322.067 47.9398H322.748C325.826 47.9398 327.368 46.7634 327.368 44.407C327.368 43.3535 327.01 42.4451 326.303 41.682C326.221 41.5889 326.132 41.5033 326.039 41.4177C325.16 40.5987 323.764 40.1929 321.862 40.1929C320.682 40.1929 319.595 40.4088 318.597 40.8369C317.927 41.1273 317.305 41.5033 316.743 41.9686C316.468 42.192 316.203 42.4377 315.95 42.7057C315.176 43.521 314.58 44.5075 314.148 45.6615C313.717 46.8156 313.504 48.1185 313.504 49.5666C313.504 51.0147 313.765 52.3847 314.286 53.5424C314.364 53.7137 314.442 53.8812 314.532 54.0413C315.019 54.9794 315.637 55.776 316.389 56.4312C317.149 57.0902 318.001 57.6076 318.958 57.9836C319.118 58.0506 319.282 58.1065 319.446 58.1623C320.6 58.5457 321.832 58.743 323.15 58.743C325.141 58.743 326.843 58.5048 328.246 58.0283C329.646 57.5555 330.815 57.0343 331.745 56.4647C332.672 55.8989 333.383 55.3777 333.886 54.9012C334.381 54.4247 334.724 54.1865 334.906 54.1865C335.196 54.1865 335.509 54.354 335.84 54.6927C335.926 54.7746 336.008 54.864 336.094 54.9682C336.522 55.4894 336.738 56.2749 336.738 57.3135L336.756 57.3284Z" fill="white"/>
<path d="M338.586 63.8747C338.586 63.0594 338.731 62.3 339.029 61.6001C339.323 60.9003 339.718 60.286 340.217 59.7648C340.716 59.2437 341.315 58.8379 342.019 58.5438C342.722 58.2497 343.455 58.1008 344.226 58.1008C345.857 58.1008 347.227 58.6667 348.336 59.7984C349.445 60.93 350 62.2888 350 63.8747C350 65.4606 349.434 66.797 348.302 67.884C347.171 68.971 345.812 69.5146 344.226 69.5146C342.64 69.5146 341.304 68.971 340.217 67.884C339.13 66.797 338.586 65.4606 338.586 63.8747ZM340.354 50.8304C340.265 49.8365 340.172 48.634 340.083 47.2306C339.993 45.8271 339.889 44.3418 339.777 42.782C339.662 41.2184 339.562 39.6326 339.472 38.0244C339.379 36.4162 339.29 34.8973 339.2 33.4715C339.111 32.0457 339.04 30.7651 338.996 29.6334C338.951 28.5017 338.929 27.6418 338.929 27.0499C338.929 25.1476 339.301 23.5729 340.049 22.3258C340.797 21.0787 342.145 20.457 344.092 20.457C346.039 20.457 347.58 20.9447 348.44 21.9163C349.3 22.8917 349.732 24.2393 349.732 25.9592C349.732 27.0015 349.676 28.4273 349.561 30.2402C349.445 32.0532 349.322 33.989 349.188 36.0476C349.051 38.11 348.917 40.2059 348.779 42.3315C348.645 44.4609 348.53 46.3632 348.44 48.0384C348.395 49.1254 348.314 50.1008 348.202 50.9607C348.087 51.8206 347.897 52.5689 347.625 53.2018C347.353 53.8383 346.944 54.3223 346.4 54.661C345.857 54.9998 345.131 55.1711 344.226 55.1711C342.912 55.1711 341.974 54.81 341.408 54.084C340.842 53.3618 340.492 52.2711 340.354 50.823V50.8304Z" fill="white"/>
<path d="M97.3213 31.8464C96.2343 29.7952 94.2613 29.6053 92.1579 29.5941C78.9499 29.5495 66.6166 33.2535 54.6519 38.3983C52.1056 39.4928 49.5518 40.0586 46.8305 40.3378C33.9352 41.6743 21.4902 44.578 10.0467 50.9586C8.19653 51.9824 6.68512 53.2369 6.85636 55.5748C7.03133 57.8791 7.98806 59.7442 10.3333 60.5445C11.4874 60.9354 12.1426 61.7507 12.6898 62.7707C14.5921 66.2812 16.4795 69.7917 18.4414 73.2687C20.8574 77.5349 24.5763 79.0835 29.3563 78.3948C34.1176 77.6987 38.7858 76.6228 43.2158 74.7615C44.8575 74.0653 45.2558 74.3967 45.2745 76.1091C45.3005 79.2287 45.8291 82.3148 46.7077 85.3116C49.4625 94.689 56.3457 98.8324 65.9577 97.0157C69.2001 96.4089 72.2937 95.3628 75.35 94.2088C77.6804 93.3228 78.5813 91.7071 77.9038 89.8309C77.2263 87.9435 75.4803 87.266 73.1499 88.0663C70.5068 88.9859 67.8674 89.9091 65.1275 90.4898C58.5421 91.8895 54.7338 89.5703 52.8836 83.0668C51.9195 79.6531 51.912 76.124 51.4839 71.4297C51.6477 65.693 52.7868 58.8135 52.4927 51.8595C52.4927 51.7032 52.5263 51.5394 52.5784 51.3905C52.8129 50.7204 52.8055 49.8009 53.5425 49.5477C54.4546 49.2425 54.9869 50.095 55.4374 50.7018C56.1075 51.5952 56.6696 52.5706 57.2354 53.5273C58.5719 55.7944 59.8413 58.1174 61.2336 60.3472C63.9549 64.6842 67.819 66.996 73.0531 66.6646C79.0913 66.2738 84.8615 64.7512 90.345 62.2235C93.5242 60.7456 95.3781 58.2179 95.8025 54.6106C96.2976 50.3779 95.8211 46.1564 95.8546 41.9237C95.8732 40.5872 95.795 39.2657 96.8187 38.1005C98.5051 36.187 98.4456 33.972 97.3139 31.8427L97.3213 31.8464ZM45.0883 66.0578C45.0958 67.2119 44.0646 67.841 43.1674 68.351C38.8156 70.8452 34.0617 72.2263 29.1143 72.8257C26.6648 73.1198 24.6917 72.2338 23.3776 69.8289C21.2222 65.8829 19.5693 61.7544 18.043 57.5515C17.4362 55.8837 17.9835 54.9084 19.4576 54.0224C24.2301 51.1373 33.7863 48.4868 40.3121 48.3751C44.3699 48.3044 44.3252 48.3155 45.1181 52.2169C46.0674 56.8405 45.0139 61.4454 45.0846 66.0616L45.0883 66.0578ZM84.1318 58.8358C80.4724 59.9638 76.746 60.7902 72.8782 60.9391C70.4808 61.0359 68.7348 60.1053 67.3946 58.1769C64.7255 54.3277 63.1806 49.9721 61.7027 45.5868C61.3378 44.4923 61.7473 43.692 62.6855 43.1633C70.0526 38.9753 77.9447 36.7752 86.4511 36.9055C87.8508 36.9316 88.3199 37.7654 88.5544 39.0274C89.2915 42.9549 89.7978 46.9009 89.8908 49.4807C89.9504 55.8167 88.882 57.3728 84.1281 58.8396L84.1318 58.8358Z" fill="white"/>
<path d="M66.2217 10.401C68.6824 10.4568 70.875 11.3615 73.0305 12.4485C76.0458 13.9673 78.8043 14.7826 82.1064 12.348C85.6727 9.71975 90.125 11.0636 92.783 14.7528C95.199 18.1107 96.2042 18.483 100.161 17.4778C102.79 16.8115 106.203 19.6221 106.047 22.362C105.995 23.3113 105.496 24.0372 104.543 24.309C103.553 24.5919 102.63 24.1973 102.384 23.2927C101.878 21.4201 100.858 21.6807 99.3424 21.9674C95.3814 22.7194 92.3772 20.9399 90.0655 17.8315C87.6606 14.6002 85.9966 14.2651 82.702 16.6477C79.7127 18.8105 76.6712 18.2298 73.5963 17.0385C71.8913 16.3796 70.2794 15.4639 68.5595 14.8496C66.2701 14.0306 64.0365 13.9711 62.1342 15.9106C61.2221 16.8412 60.1351 16.9492 59.2044 15.9106C58.27 14.8682 58.6274 13.8296 59.4873 12.9324C61.3189 11.0227 63.6307 10.334 66.2142 10.3898L66.2217 10.401Z" fill="white"/>
<path d="M67.9837 6.81641C66.651 6.73079 65.5342 6.68984 64.4174 6.58561C60.0991 6.18728 58.0814 7.53489 56.8306 11.6931C56.7635 11.9202 56.7375 12.1622 56.6705 12.393C56.2424 13.8858 56.1456 15.9854 53.8189 15.2595C51.63 14.5745 52.4787 12.702 52.8771 11.1943C54.6751 4.3855 58.6361 1.79451 65.6012 2.67679C68.3523 3.02672 71.0959 3.37665 73.4933 1.14304C74.6994 0.0225148 76.5012 0.32033 78.0945 0.726102C80.518 1.33662 82.6846 2.53533 84.9033 3.63352C86.5525 4.44879 88.183 5.01463 89.4413 2.87781C89.9811 1.96203 90.949 1.71634 91.9429 2.35292C93.0188 3.04533 93.0448 4.03929 92.6279 5.09281C91.7642 7.28547 89.1918 8.55118 86.4817 8.25709C84.0099 7.98906 82.0592 6.4851 79.8702 5.56187C77.6776 4.63492 75.7418 3.84571 73.5454 5.85224C72.0154 7.24825 69.752 6.77546 67.98 6.81641H67.9837Z" fill="white"/>
<path d="M25.0293 31.1327C23.4397 31.062 21.9283 30.5929 20.4653 29.9266C16.3517 28.0503 14.5053 28.4784 12.1823 32.3984C10.1721 35.7898 7.2572 37.4799 3.51591 38.0792C2.02311 38.3175 0.418634 38.4887 0.0575337 36.579C-0.32218 34.5799 1.24507 34.2895 2.77509 34.1257C5.38469 33.8465 7.4694 32.767 8.76861 30.3435C9.80724 28.4077 11.341 26.9 13.2582 25.8018C15.6407 24.4393 18.0418 24.1638 20.5397 25.5338C21.4443 26.0289 22.4011 26.4607 23.3764 26.7846C24.9251 27.2983 26.3508 27.2686 27.3485 25.638C28.0782 24.4431 29.1466 23.974 30.3602 24.9233C31.5775 25.8726 31.2127 27.0266 30.4719 28.1024C29.1689 29.9973 27.3969 31.0694 25.0218 31.129L25.0293 31.1327Z" fill="white"/>
<path d="M18.1397 17.9204C19.8335 18.5346 21.1327 17.5816 22.4841 16.059C25.5627 12.5857 27.5246 12.69 30.7075 16.1819C31.3254 16.8631 31.8466 17.3582 32.9411 17.0604C34.0839 16.7477 34.9848 17.3396 35.2007 18.5904C35.4129 19.8226 34.7391 20.5709 33.6484 20.9618C31.2547 21.8254 29.3115 20.9022 27.9713 19.0297C26.7167 17.2726 25.7972 17.8198 24.9596 19.1451C23.3887 21.6281 21.2035 22.369 18.3891 21.9967C15.4631 21.6095 12.8349 22.3131 10.7762 24.5988C9.90138 25.5667 8.81808 25.8348 7.83901 24.8743C6.77433 23.832 7.11309 22.7226 8.0661 21.7212C10.7092 18.9329 13.9703 17.7268 18.1471 17.9204H18.1397Z" fill="white"/>
<path d="M25.9334 4.10188C26.7077 4.15772 27.2959 4.52254 27.6719 5.19634C28.5839 6.82688 29.9539 6.89017 31.5807 6.49184C36.2415 5.36014 37.7976 6.41738 38.5272 11.1824C38.6575 12.0424 39.0335 12.6231 39.7148 13.1331C40.7013 13.8702 40.8278 14.8939 40.1429 15.8656C39.3388 17.0084 38.2592 16.8707 37.1982 16.1894C35.6086 15.1731 34.7077 13.6952 34.6854 11.8302C34.6631 10.0954 34.0228 9.91671 32.4518 10.315C28.6807 11.268 25.8366 10.1475 24.3736 7.41134C23.4764 5.73241 24.2619 4.06465 25.9297 4.09815L25.9334 4.10188Z" fill="white"/>
<path d="M43.3554 11.5664C43.4336 11.1159 43.5788 10.2523 43.7314 9.38859C43.966 8.06704 44.1223 6.90556 42.2572 6.52585C41.2596 6.3211 40.7384 5.31597 41.0883 4.24012C41.4196 3.21638 42.22 2.80688 43.3257 2.84411C45.9613 2.93718 48.087 5.39043 47.9046 8.24573C47.8487 9.11683 47.7408 10.0028 47.5211 10.8442C47.1973 12.0875 47.2903 12.9438 48.7273 13.4351C49.7063 13.7702 50.2126 14.6934 49.7882 15.7693C49.3564 16.8712 48.489 17.2807 47.2866 17.0797C44.6174 16.6329 43.2289 14.8758 43.3517 11.5664H43.3554Z" fill="white"/>
<path d="M39.0497 36.4326C34.6941 36.1534 30.6736 37.0803 27.1631 39.8239C26.5935 40.2669 25.8416 41.1045 25.0821 40.4084C24.3339 39.7197 25.1082 38.9268 25.473 38.279C28.7118 32.5014 38.0594 30.6587 43.0627 34.7909C43.4312 35.0961 43.8482 35.4237 43.6286 35.9747C43.4052 36.5368 42.8617 36.4326 42.3926 36.4326C41.2758 36.4326 40.1627 36.4326 39.0459 36.4326H39.0497Z" fill="white"/>
<path d="M69.5062 28.1765C64.9757 27.7335 61.0483 30.0193 57.1395 32.372C56.5774 32.7108 56.0115 33.5781 55.3116 32.8113C54.6937 32.1337 55.3675 31.4972 55.7546 30.9127C59.7565 24.8894 65.6533 22.9499 71.6133 25.7196C72.5291 26.1439 73.9697 26.5721 73.7166 27.6628C73.4188 28.936 71.952 28.1319 71.0028 28.2547C70.6156 28.3031 70.2098 28.2175 69.5025 28.1765H69.5062Z" fill="white"/>
</svg>
